<mxfile host="65bd71144e">
    <diagram id="8sGarzxrBSl2dyU0IkfP" name="ページ1">
        <mxGraphModel dx="991" dy="909" grid="1" gridSize="10" guides="1" tooltips="1" connect="1" arrows="1" fold="1" page="1" pageScale="1" pageWidth="827" pageHeight="1169" background="#ffffff" math="0" shadow="0">
            <root>
                <mxCell id="0"/>
                <mxCell id="1" parent="0"/>
                <mxCell id="38" value="" style="shape=image;imageAspect=0;aspect=fixed;verticalLabelPosition=bottom;verticalAlign=top;image=data:image/png,iVBORw0KGgoAAAANSUhEUgAAARwAAAD2CAYAAAAEXDiwAAAABHNCSVQICAgIfAhkiAAAABl0RVh0U29mdHdhcmUAZ25vbWUtc2NyZWVuc2hvdO8Dvz4AAAAzaVRYdENyZWF0aW9uIFRpbWUAAAAAADIwMjLlubQxMuaciDI35pelIDA25pmCMDPliIYxMeenkvRSleUAACAASURBVHic7L15lGRHeS/4i7vlVplZmbX33qjVaqkljJBALAbE8Tm2ebY5xsLgbY7BnsEzZzxehnn282FY3vNyAPvJx88jsH3MMwNv/NgezxhsFgk/22ADEhZIstZWd6u7a+uqyqzcM+8a80fcJSLuzays7uqqpvr+zqnKzBsR3/3iiy+++GInlFKKFClSpNgFKHvNQIoUKW4cpAYnRYoUu4bU4KRIkWLXkBqcFClS7BpSg5MiRYpdg7bXDFwfoAAIKKUghH/CPtkDAhKEkOg5H4cACOb8CAhA2A9K2XcCEtINUlEa/GYBQdyIMksl8hElEvkM3hDwwcWlACXjxvXfGDImy8IP4uISwmIMlVsgC0Rkhe+83ILyIPwEKsdvyAMvY0aMQJaJLDNWznLcgDAFV85gv1nZ+d/9/yyuKDdKiSwcIa98UBSXLxGO55CP/QWSTosDAA0VXip1AYLy+A/C6AlpBFUidCjdxLhDaIZ8kKiSjkIs7lb5ux7iQpTxbvMgBm8RcRhtIMHyJVAbxXPQ+u0jpAYnMDZCwcfUHoPBAKZp4p/+6Z/QardAQOC6DizLxvHjx3HXXXdxaSkopVA1FflcXlJeiB4L/+KwyeVcKCRpscxvUvgoiyQnHmYQI5rjVcAk34VLP1LGEg/CT1luw2QRvTMpbijWsLzj5SzIbQud6Pf7cByXOSmcc/PtR/8F58+dh2EYUFQVoBT3vv5ezM/NIxmynxyxst+QdqkSwSkgpVjf2MD999+Pc2fPYWV1BY7jwPM8eJ4H13VQKpUxNzeHbDbrP3dhWTYOHzmM++57s1D1XNdFqVjE6dtvT3SaiSI+jdR8pAuFuBGgkh7zBoh9epQC3vXZ3hCFcDWOSpKiCdVf/DX6GzijE3TJKGiCLFZWV3DmzBmoqgpNE6vLZz/7Wbxw4QKyhgFV00CpBwKCS0uL2KxvQtd1qKoKSilM08QP/MAP4MDCASiqPHRKY98J938/IfVwaGJVDmGaJt773vfiS1/6EgzDgKZpUBQFruui1+vBsiywCqBgojgB27bgeRSGYQCEGY9cLgcAcBwHjutiqlrFK17xClAA1DdcjuPANC3ce+/rcM8993DsMW+pUCigWCyKzMXdBiksOU+u42J9Yx2f+W//DbWNDfaeQBaUhq6857lQFIWNMxE2guJ5HlSFhM9Yd4KEaSil8DwvGtfx43mex7wWQtiYCmG0CCG+50GgcE36S17yErzxjW/c8W5Fu91Gt9uFonCVngKPfudRPPTQQzCMDAxDh+IbvAsvXMA//MM/olqtIJPJglJWXrZjw3MZ/81mE9PT07BtG67jQNV0tFpNVKvV0Eh5HsVNJ16E19/7evzsz/wsMtnMcCbD4Z39Z3BSD2eLPvpjjz2Gb37rW1A1DZr/RwgbeOz1eshkMjBNE9msjsFgAEqZsel2uzAMA67rotVqIZvNwnVdAICqKPjqV78Ky7JgWRZM00QulwOlFN/85jeQz+eRLxTg2DYcx4FlWfi+7/s+3HPPPdyQphd25+6++27ohg5d0yPGh2Tp4sWL+MIXvoAvfvGLqNfrTAJ+flzXxWBgQlUVUErRbrcxOTkJ27ah6zoopRgMGK+2bcEwdBBC4LoustkcCFFgmgP0+30QRYGh63BdF7quwzRNEELCFl/TNPT7feg641khBEYm4xs4iuWlJdx55504MH8AmqGNUVKANTDhUg8btQ08+JUHoapqaPiZTCgefvhhPP7448hks6H/4Hke2p0OBv0++v0+CoUCFEVBJpOBbdsol0vwPIp+r4uuX+b1eg2VShX9fh+9Xg/mwIRlW1BVFSqYLD3P4wybhzPPPoczz51Bp93G//KOd4QNUQz72AVIPRwadVeEoQAK9Ht9/PZv/wd84W/+Bvl8DrpuQFVVAMxbGQwGKJVKYRfLdV2YpgVdU+F6Hnq9HorFIizbAgGBoihh65rL5WCaJjLZDFNWy4Ku6/A8D7qmQdN19Pt9ZHNZEBCYpoVsNhMZPDDvaHJyEpVKBT/55jfjzW9+80hd9RwXf/mJ/4rf//3fh2EY0DUdiqqCENbVsywLIASObUPTNDiOjWwuB8/1YNs2MplM6LX0B30AQCabQbfbg65pIArBYDCArhlQVQWqosCybWSzWdi2zXlOHnRdh2VZoYFRFIJcLh95Sp6Hufl5/Mi/+Tf42Z/9OWSy2ajAJLiOgyefehp/9d8/i7PnzmEwGODcuXMghEBTGV+ggOu5fiORBUDR7/eRyWTQaXdQLBVhWhao5yGby8IyLRiGAdM0QT0PupGBrmuwbZuVm9+NUhQFjuOE3SdVVQBCoBAFlmXBMDLMgwu8WMuCZdl497v/b/zkT/7kSNVMPZz9iGDKMxigJJEPsbyyjC99+cswDAOqqkFRFb8LQKDrBnTdAABkMhlQSuE4DnOhCZDRDRTyeQAEuq7DcWwABDMz03Bd5parqso8BN2DaQ6QzWYxGAygqApczwNAoBIFHvVCr6PRaKBQKCCby0HRNPR6PTQaDWzUanAcF6quRnnjxo9BCf7+H/8BDzzw/4AozPixP5Yf1/OgqAp0TfeNhcoqCygUlUlEUZTQGOdyObieB1XRUCwWQ28ha2TDoQdKKYii+BVRZUaSUlDPY96irkUDw5QyY06CsqBYWlrCn3/kIyCKgp/+6Z9GNvAIOJvjOi7+4R//Eb/7u7/LPCu/fDJZ1v1xHRfNehOZTCbs+tm+JzIxUUCz1UapXPLzRwCiApSVacC3oRugoLBtG7lcDuVyOex6qqoadqvZOA/v9WUBRF1GVQM0z4NpmlhcXAwNVTCSTUd1kfcJbniDE/PvKCt46np45JFHQD0Pqt96KYoChQQucjQTE3aVVBWq4lcaAJrfXdCgQTcMELDKH4w9eh7zHPK5LEr++Ew2m4WqKrBth3k6fitqOw5Uv/ICrFsWdIUyhoHPf/7zyGQy+KEf+iEsLCzE8liv1/D//eVforHZQC6fh6IooeEhhCBjZJDNZKCqmjA74nrujus/UQgnR8ag47oInG1KKECZQbQsCx/60IfQ6bTxv/7S/wbdiLqNruPiS1/+Mj74+x9Av9cPZRV6BkSFR1wUi8Wwa0MI0O8NoGkaKAVKxSIMgxmUUqnExmFcF6qiQtP9rhxhc166zoyJQoggkqCbqCpaOOZG4I9rBawo/jiVokDXdXz84/8F9913H44cPcLCAW4Kbf/ihjc4w+BRDw8++CBrxYNZBerPnrAv8PtjEGYThnjB/IBo8DXwcGjQugOs1QegKCoMQwfAWtG8orDBWMpaWoUorOX00zc2N/HhD38YDz/8MN7znvdgfl6cgl1dXcX/+OpX2dgFIYKxYYO/rHJ4ritmh6s0OwXqUbhwxYeEwJcoQAkUBSFv/X4PX/ibv8XP//zbBYPz7X/5Nt73vvfCtm02VoMoTWB0mJcGEEUJvc9sNgfb7zYSQoQBZF3Xw3GlkDX/v+3aIJRA99/lj+wy79MLdCNKRLiZQeobKlVl4zqmabKBdBpSuiFww29tIMLkNBEGcgKvxnU8DAYDdDpdf5Cwj37w1++Hg8VJf1GFTu6TB7M60YPoueO64RiHy3kAbOxFARFac/b5jW98A5///OfhOvEKTeGvpg7yTQiUwPD4XSv2qQiVNhDNCCH6/4ZHItyX8F3cn0IICNfNC9zBoLu7vLSEr33tHwW5ra2todVqhVPawTv4LmNQhkE3x3XYkgUAURgSDCsRjRdRFGSMDIyM4XdDQ0aYNBUSlnnfH3zu9Xro9fvo+TpimgPYthM2NDHB3ABIPRx+MZjvsRBCsLS8hLW1NaiqCs9zw5UfpmmKyX3FsSxbWNcRPOcHWoGgi87cc8UfA1A1VWriCBRVhcEbFCE46s4RAJ7/WkpZN+0Tn/gE3vjGN2Jubi6yn/weCm4K27IchHWNRB5GtJCNgl+xTxEs6QkScYv8qM8bjTYogFCfXRJ2VwECQuUxiyANE0RgJALeXc8Nu64A0B8M8Bd/8RfMEHsUNOCTMxRcIQllkstlwc958RwE4y0EFIQosG3LH0/jbQNb9GmaYpmDoxbOxSQNyRBA0zT8y7f/BUePHg23hQyLvp+QGpyE4qWgeO7ZZ3H27Fk2IDwkHoBIscLuFVjF9djK1n6/n5gumLmSEbj0HvUi9ijCFptxF/llAW8UrFJ6noelpSX857/4z/jNf/ub/qwJi+M6DuBPb7uuG86uXW8gAIiqQteiMZGFhYN4/etfH0WiFK1WK5x+pp6/cI/6hsPv3hBuz1KQ7+AlJBihJoSVE2c4mI1U4Dg2V8YJ4AbmadBokXg4n7fAuH32v38WP/7jP84anOTo+w6pweGMBDjbYWQybGYjFpgEfoNl6Gsn7CyIwqIuj0g7mG6n0n4LVVOhqTqYP8PSsUFSFZ7nL7bzVz73+32cefZMlD0KzM8v4PWvfz2++c1v+gsXPTHzQ/d6RTxvLYudiUsBUNeF6XcjHc/1Z/l4i87GsthiShu6p0eDzv6U48AciKuHKYVlWZDXLRN+A+hISOXMeTdCWm5thSyB0CYRYLIyGct78u/9gxt+DCdx6IEA5clJTE5OInQxpHCxu8+3alTUvqAlDcIQ7UiPnnFxieQ1+XAdF6Y5gGla7M8y0e110e/1mBfgsnUejuPCskw4nivQrU5Vceedd3JdjVg1EORB5DAuf0SKG6WVZRWnK4YNiRvIAqwbRL1gDCuKq6oqbj550jc6bujdBSvAW80mBn22/y38s62wt8hqvc9DUGSSHsTHy0eXs1iwdPiwFgF0w8Av/++/zLwbIhsX2STuH6QGh8bLm1Dg9ttO495774XjuJIihcm4BETUPSk6lV8wykOX63f4XSbKPhzXYQbGdfzNpBYymSz+51/8xWjWxI9bqVRQLBVDqolKzTsc3EPCPadyXOl3yO+IrsU4oP54jK7reOtb34p8Ph+GZTIZvO3nfx75fB6WacJ2HLYq2zSFAXaBCRp8UOk34nGR2NRIjohMO6Gck/JNgZmZGVQqlWgYjOeBXJG4vieQGhyQmK5QsC7Mz/z0z6BSqcR9bfmn3G2XG+6hXSsJSZUa0SkwsVR+JDZdzrY69Pp9vPa1r8VLX/pSceCUAvfddx+OHTuenI0teA7entAYx/IUdoyGxh0DHA+33347fvgNPwxd50YACMHLX/5yvO51r4Np23BsGx63L44KhBJ4SCqCLcp5nPhSZy3RVyGE4C1veQtmZ2YTXjGsa7s/cMMbHHHrJhE+Dh8+jF/51V/BS15yJ+KzRby/vJWGyC3n6Ph8pSbDq04Yw3U92LYTLrm/7777UCgUYqpuGAZuPnHCn6bfHs/8+Epy3HFryXY6C8xzvOnECZy46USsfuu6gV/+P34ZKmFbKFQyrjpvx4UQF05sB0Sy3ARs8P91r3sd3vCGNyTsGt//UN/3vve9b6+Z2FMk9LODvruiqrj11lvxmtd8Py5fXoPneqhUKjBNE67r+G67XxEJI6YkdL/k1w0bN5J/kMSweHpFYes6arUNvPSlL8W73vUucfGaH1dVVZTLZfzd3/0dbNtCwmBU7KXho9h4TZyvoXET8jAyrg8K4MCBBfzSO96BQ4cOxeISAlQmK3AcB9959FHk8wVhin80v5yMubBgcSUNRnalFHQIr4ENC7pyhPvnOA7m5uZw9NgxvPOd78RP/dRPoVqtxmjHSO7DvVTp5k0kzCYJDTb7YTs2PIcdu/DQQw/h4sWL/gI5+F4wxbe+9S2cP3+eUeWIBrMplFK2EdJhGwDz+QI0TY07CBHRMCjGEqIHhDClrlar+NCHPoRbbrklThJsfsV1XHz2s5/Ff/rjP4JpWqA0mvUK51+ikVVuWkUU0GAwQH1zE4a0KldVVUxOTiYMe5FwYFYc2gkO9eQ8OcrWqczOzuJd73oXXv7yl8e2E/BoNpu47777UKvXoalK1CvhVvomOmGE+JNzUcDKygp6vR5uuumm8CgLQgiKxSIbQyJs4SUz6BFRQghO3nwz7rr7blZeYdeNnSrwIz/yozh+9Bj0jJFoSEJKHJ+pwdmP4M/DCRR0nB5CgiWo1WrodDqColDq4d//+/+Ahx58CBPFCZTLZSwsLKBareJrX/saNE1DoVAYutZDfh62nBTCwrlTp07ht3/7t3H8+PE4kTANi+s4Di5evIjPfOYz2PDPw9kuzp87h6efeQbveMc7cPPNN4e8fvGLX8TDDz+M7//+7w+3a2wXlFKcPn0aP/iDP4j5uXmu65FcMJ7r4Wtf/xp+53d+B5ubmyNiiuAXZDJDSLC4tIiDBw/iDW94A1760pcCYEbogQcewN13342ZmRm8+tWvDsM4pjFRKqJaiXsuiXxw5TGSv32G1OAE6ygAMK0bd9Auiisd7x0j/zM/89P4zne+g7e//e2oVCpYWlrC8vIynnvuOTzxxBP4wz/8Q8FQPPP0M/jrz/91uK0hgGkOsLnZAIBwwV6+kMepW07h3e9+N44cOTI2z4y3Ky/6L37xi/jc5z6Hb3/721hYWAi7cJ7n4bnnnsOf/umf4jWvec0V0wcQbTcYIeOgylJK8Z3vfBcf/OAHcOHCBdiWFcYmhMCjFNVKRTiDJtjr9CM/+qO49dbbQD0P7373u/HKV70Sn/70p3HkyJFwh3i320WxWMSXvvilcGvGEKbBuVgxfrcTdz8anHThH9eVCLsx/qrU0QjiDqu4TIEIAe6++2WYmJjAn/zJn+Cuu+7Ci170Ipw6dQr33HMPHn30UUxNTeG1r31tmPJVr3oVfu5/+jmeDEDYfqKHHvqqoJonT57EK1/1KuTC82KSuBB5DsOuQqEJITAMA9PT0/ixH/sxlEqlMOzMmTPhURHD08cneZI4Do1jYsXluoGE4M47X4KPfOQj+PKXvoS19fWQGgA4rot7771X9AB9JgzDgKZrsE0LIKxbeOedd7LzhfxjR/r9Pj72sY+BqEri8FTInTxFKWVnZNwbAKnB4c7DYb+Ht/zi2EMQF0LtiRQqmhA9ffo2PProv+Dw4cN45StfiQMHDoR0jh49irNnzwqKqOnsrBhZB0+cuBknTtyczNhWDSmi61Eg8RwQSbzuZAfqQdANFGScmAVxPkg+4zw+LkUFukQhKBQK+In77huLKcGZpUBv0Ifrumg2m6EBDdYBEUIwNzcX7Wjn8wZOnALP0hU/SWwMNbz7EzfevFwCkhRFBAmDKJIrQkiLm/II4h47dgy1Wg1TU1O4fPmyQHl6ehrnz58XXxu8aNj0Tfylo3mWKhYLlYwNoWFczq1IeN92vCKRh3j++Cwwc+LPD0XDG9EA23h0x2PJd/bEvGysb8AwDDSbTUxNTQlh/X4fs7OzEqFo4ltYHM4JW2Yp9ntE2e1H3PAGZ8hQ7VixwtAtVvrNzs7CsizMz89jZWVFCMtkMlhdXd0WdyEEvdxStSWexTDhZ5K+yxZrLOxkXJ7HnXIJRDpr62solUrY3Nz0t7VE6PV6OHjwoMTDGHyMxWq8rParybnhDU6SQgwt7IQAMuQ5j+JEEYQQzM7OYm1tTQhTFAXr6+ux82u2VDhpXGAcXselNxI7VBO2I+PtELma5EuLy5icnESr1RLGpACgXq/jWGwG8BqZBbJ/Tc4Nb3DCUYP4OGUcNB6BSr+T0mg6W1PCDlk3Y1EymQwWlxa32XAnDITwodtz0saOG6M7ArEqc4Uy3pLeOHTH4GF1dRnlchn9fj92Jc/m5iaObjkLuDMgWyrV9y5ueIMja/E4HosQiSA6onMIYUIIbr75ZrRardj5OIQQLCws4MyZM2E6//gnBGtD4uxEk8ThQKrEeJK6isMwRAojwjP5Or7tDJOMy4Ocs6R8it9HjXWQgKj/a1QhkiQR4IUXLiCfz8PzPO5oEobLly9jYWFBHtaOEZGlNipPcnlciYy/15AaHHlsIzGOpDbywGqwFH4EpVOnTmFzcxOGYYT3QQU4ePAgnnnmmTBdMMsVvCfOU8ImRSoPBMcxKi6VxiTEy4i32v01PsShoK1kL/MwSsY+/zQwwqPdziQnol6vs/Oj83lp8SZFt9tFtVrl6CabB5Gj5LKLfaM7K+PrGTe8wRk2JSmamFF9jPHec8cdd6Ber6NarWJxcVEIO3z4MOfh+O8jY5P+3pzUuFY8b3MQJ4juOA5WVlfhum6sOxWcU1wq8uM6Y5qH78WyuYa44Q1OMojQtiZ95f3hRNWT4h45cgSmaaJarcZmqvL5fOT1hA0nYdfVJJCLwd/7NLIKSPxsGZeMGfeKMZ7cRvKQWB5ILrvEdBEPjuOgsbkJ0zRjU+LBTaH8jRFb8bBl/0jsW45XzvsAN/zCv9FL1MMfiV+jCrGVYgP5XB6apmFubg6PPfZYjId6vZ58kv+QVye+bKyxp7GIiXGusBZsuZJ5DLltycOWcbd4h89DrVaD53loNpuxndyWZaFarY7QlTG+j0y3nXL+3kbq4ewSVFVFsVhELpcLrzbh4bouGo3GHnGXYmlpCeVyGe12O+bhtFotHDx4cI84219IDc4uQVEVHD58GM1mEwCEK08AYG5uDo8//vhesJYCwPLyMkqlEur1emzRX7PZxE033bRHnO0vpAZnl0AIwcmTJ8OZkMFgIITNzc3hqaee2kMOb2wsLS2hWq2i1+uhUCgIYbVaDS960Yv2iLP9hdTg7CLuuOMObGxsoFgsxgaODxw4gOeff36POLuxQSnFysoKJicnYVkWstLO+0ajMfycoRTbQmpwdhG33XYbms0mpqensbS0JIRNTU3hwoULe8TZjY3A4OTzeXYTqnRwWLPZlDZuprhSpAZnF1EsFlEoFBJ3jauqGl1wn2JXQT12DKhlWcJVNADC++HzufyQ1Cm2g9Tg7CJUVUWpVEK5XI5t4gTYWhDbtveAsxsbjutgfX0d/X4/NiUeXK5nZIw94m5/ITU4u4hg39RgMAjvxOZRKpXw7LPP7hF3Ny5M00S320W73Y51nTzPQzab9e91T3G1SKW4iyCE4MSJE1hbW4Ou67GZqoWFBTzxxBN7yOGNicXFReRyucQ1OO12G3Nzc3vE2f5DanB2GSdOnMDGxgZKpVJsod/CwgKefPLJPeLsxsWFCxdQLpfR6XRiXap6vc7uxEqxI0gNzi7jtttuQ61Ww/T0dOykv6mpKTz33HN7xNmNi4sXL6JUKqHdbicevJUanJ1DanB2GQsLCwCAarUamwbPZDJoNpvpTNUuY3mZnfRH/RsceDSbzXTR3w4iNTi7DE3VMD8/j4mJidjiP0IINE1Dt9vdI+5uPHieh6WlJRSLRdi2LVyRTCnF5uZmuq1hB5EanF2GoipYWFiAoijodrvCJk5CCEqlUuKUeYprA+pRNBoNaJoGVVVjO8Jt247dppniypEanD3A0aNHUavVoGla7MjR+fl56TCuFNcSrutiMBig0+kkHryVy+Wu+MriFHGkBmeXQQjBLbfcEs5UBbvHAywsLOC73/3uHnF348FxHfR6PbRardiUuOd50DSNu9s8xdUileQeIJgan52dxbp/JW2ASqWCp5566qru/U4xPrrdbnjw1vT0tBBm2zaKxeK+vON7r5AanD3AkSNH0O12MTU1FRs4npiYiG3sTHHt8PTTT6NUKqHb7cZWGddqNczPz+8RZ/sTqcHZA+SyOVQqFRSLxdgmTkJIeEtAimuPs2fPolgsotPpYGZmRgir1WrpGpwdRmpw9gCKquDQoUNQFAW1Wi0Wns5U7R4uXboUTonLO8U3NjZw+PDhPeJsfyI1OHuAYE9Vv9+HaZqxHeIHDx7E+fPn94i7GweUUqytraFYLMamxCml6cFb1wCpwdkj3HLLLajVapiYmIhdjHfgwIF0anwX4LkeVlZWkM1m2e2p0uBws9nEkV263vdGQWpw9ggnTpzA6uoqZmZmYt2narXK3cSZ4lrBdV30er3wCArZw8lms7HzjVNcHVKDs0c4cOBAePSBPHBcKBRw4cKFdGr8GmNgDsKuk3xTA6U0NTbXAKnB2SOUS2UoioKZmZmYwdE0DRsbG3AcZ4+4uzHQ7Xbhui6azWbioj9553iKq0dqcPYIiqpgfn4ehBB0Op1YeC6Xix1fkWJnsbGxAV3Xsbm5iUqlIoQlrctJcfVIDc4eQVEUnDp1KlxWL3efFhYW8MILL+wNczcIzp8/Hy76k9fgrKys4MCBA3vE2f5FanD2EKdPnw53KrdaLSHs8OHD6fnG1xgXL15EsVhEt9uNnfR3+fLl1OBcA6QGZw9x8uRJbGxsYHp6OrbF4dChQ+lanGuMc+fOYWJiArquC+fgAOykv9Tg7DxSg7OHOHToEDqdDmZnZ7G8vCyE5fN5rK2tpTNV1wie52F1dRW5XA6ZTEYIC2au0m0NO4/U4OwhJicn4bouFhYWEi/Gu3jxYmpwrhEc2wkHjeVjRSml6HQ6mJtNb2vYaaQGZw+h6zomJiaQzWZjYziEEJimGTsvJ8XOwHGd8D6qiYkJIYxSivn5eWi6tkfc7V+kBmcPQQjB4cOH0el0YJpmLHxubi69xeEaodlsQlEUbGxsxAaMLctKp8SvEVKDs4cghOD222/H5uYmKKUxozM/P4+nn356j7jb32i1WshkMmg0GrE1OJZlxQ7jSrEzSA3OHuPFL34x6vU6Jicnsbi4KIQdO3YMzz//fDqOcw2wvLyMUqmEVqsV29bQbDbTg7euEVKDs8c4deoUNjc3MTU1FTvpb2ZmJj397xphcXExXPQnezjr6+vpDNU1Qmpw9hjlchmGYSTuqVIUJXEVcoqrx/nz5zExMQHTNGO3NaRHi147pAZnj6HrOjKZDKrVauIpf+12G67r7gFn+xeUUly8eDE8fkJRxGqwubmZGpxrhNTg7DEIIZidnYVpmvA8L+bNlMvl9GycHYbnskV/hJDEKfFerxfbPZ5iZ5AanD0GIQQnT54MzzaWQqyz9gAAIABJREFUvZm5uTk88cQTe8HavoVt22i1WvA8L3bmjed5cBwH5XJ5j7jb30gNznWAU6dOYX19Hfl8PnaoenDcaDqOs3PoD/rhOTiyYXEcJ50Sv4ZIDc51gDvvvBO1Wg3T09O4ePGiELawsIBz586lBmcHcfnyZRiGgWazGVv0NxgMYkdVpNg5pAbnOsCBhQOglGJqagqXLl0SwjKZDJup8lKDs1NYW1sLr1mW1+D0+30cPHhwjzjb/0gNznUARVUwOTmJarWaeMqf4zhw3PS40Z3CysoKpqam0G63Y12qjY0NHDt2bG8YuwGQGpzrAIQQzMzMQNd1dLvdWPdJ13VsbGzsEXf7DysrK8jn8+j1erFZqmazmV5+dw2RGpzrBMePH8f6+jp0XYdlWULY7Owsvvvd7+4RZ/sPi4uLKBQK4VUwPNbW1tKDt64hUoNzHYAQgptvvhmXL19GoVCI3Ss+Pz+Pf/3Xf90j7vYXgts2VVWNXe0brMGRB5JT7BxSg3Od4NSpU+FMlTyOExxTkc5UXT1sy8ba2hps245tafA8D6ZpYqIwMSR1iqtFanCuE5w4cQKtVgvT09OxmapSqYSVlRV4rrdH3O0fmJaJRqMB0zRjnkxwA6eRMYakTnG1SA3OdYJcLoeZmZnwmAremyGEQFEUmFb8kK4U28Pm5iYIIWi1WrFDtkzTjE2Tp9hZpAbnOgEhBPPz88hms6jX67FwwzDQaDT2gLP9hdXVVRSLxcRzcFqtVnosxTVGanCuIwTHjVJKY9f8Tk9Pp9fG7AAWFxdRqVQST/prt9vpGpxrjNTgXEc4efIkVldXUSgUYoeqz83NpbvGdwBLS0sol8vo9XrI5XJCWL1eTw3ONUZqcK4T8FPjc3NzsU2c09PT6a7xqwSlFEtLSyiVSrAsK3YfVavVShf9XWOkBuc6wk033YR6vZ54+t/k5CTOnTsHz0tnqq4UwRqcfD4PTdOgaeI1MK1WC3Nz6V1U1xKpwbmOUK1WoWkaJicnYzdx6rqOTqcD27b3iLvvfXiuh0ajAcuyEg/e8jwv1s1KsbNIDc51BEIIjh49Cl3XUa/XYwv9MplMuqfqKmDZFlqtFnq9XmzA2HVdttUhkx2SOsVOIDU41xmOHz8Ox3Fig8YAGzhOb3G4cvT7fXS7XXQ6ndiZN57nIZPJQNXUPeLuxkBqcK4jEEJwyy23oFarQdd1tNttIfzAgQN4/vnn94i7730sLS0hn8+j3W7HDE6z2UxP+tsFpAbnOsOtt96KtbU1TE9Px2aqZmdn05s4rwKXLl1CqVRCp9OJLfrb3NzEkSNH9oizGwepwbnOcOTIEdTrdczNzcUGjkulEi5cuJBu4rxCXLhwAeVyGd1uN7Zxs16v4/jx43vE2Y2D1OBcZ5iZmYFpmpibm4tNjRuGgeXlZbhOek/VlWBxcRHlchme58EwxA2a6cFbu4NdMjhU+KOUglL2Kx4a/Q1LHzyjlEpPRtFIpsPzcmV0OF62ladkOpqmYWpqCrlcDs1mU/BmFEWB4zhoNOU9Vbsvm/Gxc7K5Gr3xPC88b8h1Xei6HsWiFO12G8ePHx9TNnSH9CYu472Qzbh6sxPYFYMTMk3ZX/iUUoTZo/wfl4oPDunQiA7l6PBpafAWMbFMh+dFpMPTC+hswcsO5en48eMYDAYxgwOwcRx2fEWQmI4hG4g8+BHoFvyMlM0YuBayidPBWHRc10Or1YSqqlBVFYQQgVfbtjE9M51Y3sLXBB2Oy0bSG54fIU9xGQ+TzZXp33iyCelEBSflKUh79dgdD4cS9scj+BnkWEwQ+x/RGfaO4Q+2pEMkfmIM8pQo93WrPPHhcp4COvE8vfjFL0ar1YJt27HjRg8ePMjuqUrMk8RPGCZnNokfnk5CdCHakPeMAvH/jVXew2VzpXrjuS76/QG63S5KpZKYyj9qVCWqRJTG6MjZkV6NZL2J85OYpy3pXBvZhD9HsLxT2NUuFZMHiR7xFT0MIgkpg6cUUpGDxGhwhIOKFtNzKr4lCJDpBK2gRIdPODpP1P89Ok/cSwEAt912G2q1GiYnJ2PjOIcOHcKZYGqcSLIhIp2Al/A54TLK6xy2kE2ijLdGnA6NlzfhZJeQJ5laTEVCmqNlbNkWTNNEu92OXePrui4Mw4CiKhiqN/4/wQwMlY2kfxhOJ5JNUr6SZcM/TNS/LWQT0xs+AKPq1NVjVweNWaMvarqgg5QMsfYJjwhnqylXXkl1YRQd/sEoOlRyFHg6I/O0NS8hfDrHjx9DrVbD1NRUbKaqWq36B3Ql88PTCbWcXmPZDAGTjfiADKNDMFTGLNwv7yReeL1JbN3Z0ROe56HVasUMjm3bbKsD3zCEvMQNWezBFevNmHRGyCZR//wkZJhsaAINjs6wOrUTDs91MUtFZSscNckACAiI3CZwieWvSVaa0djKSotObOAlkG3TAcB5zRyd8PfoPFWrU/A8D/Pz81hdXRXGcXRdx+XVVXiOG6czQiPEPCGWJzJmCybQGT+B+IgkyJhjbGR5S3REvYm+EInOs88+i4mJicRFfxsbG5ifn49YEehI7xjFj5CnZH4SEsTylCybiM64+ifI8Crq1Li6MQ52x+Akei1cNqgQEIYGdZ1LEn0k0QmI0UhQAZ3RbCUVIuVCCQiR3rMVLwnKxOdpFJ18Lg9d1zEzM4P19XWRBiGo1+swLTNGh2I82XDcxLx2gZ/wWwKdMUCkXyGVq5DNaL3xyykhT2fPnUOpVEK32415OBsbGzh65KioN0PKO4HroTKW6fBejahxHJ2hsrkS/ZPq1BDZjKQj0Lt67JqHIwssJrwgx1JfIZqkS25b5cIkAp0ojBuDT+RFpOMXTMJMFT9pKM90yHkigV+bkCc6Kk+EYG5uDpZlhZsK+bBSqYTz588n8JMsG4EfSTYBP8PSDZXNNhEvbyLKZpiMh9BJLu/herN46RImJiZg23bseph6vY7DRw5Blk3Ei//uETosykaWsUxna9mQXZTNVnT8vtmOGJ1dMzjxrmPYDAg/YykSvNChdES5ioLlTLgobomqb2gS6WyHFyAcb7iSPN16661oNpswTTM2NT4/P4/nnnvuyviJxRZlE6czWjajEOeFy7tk9LZb3vJ4/kg6FOFJioqiQFEitaeUotFo4PDhI1x0jkaC3iRxR7bSm3H1D1vQSXw7/2SbshlBJ1andqBntUvT4uDMpfQoCX73IFZhJRo8nVjLQyI6sSljmRcSvWYonSRexsxTQGd0nkQ6d9xxB2q1GvL5fOxIikOHDuHs2bPb5IeI+RvBD5FkI1IYD9TzIMs4TsfvSPjFM65sEvXG74/xy1kCuI6Ly5cvI5fLQVEUwTOllKLT6eDw4cPJ5R3QSZIvkfjhuyccHTomHfHpGPo3rmwwhBeBjtj2J9WpHbA30LaOslMIskDClhLBR5AbvlCkJioK5kRBolaSco9pQqECTCfZa/mXhi+EEES53zIdUIkXiY6Up23R8VvC22+/PZypunjxonAS3aFDh/DII4+A0sDNH0JHkDGNFBcAKIHj2NjY2IDrbn+rRG2Lc3kuXrrEjtLgymi7yOVymKxUoBB/unqU3vAK4IP473ZcB4PBAK7rIpvNxrrChmGgUMiP0Bsa15swisQPRpQ3kb3DHdS/wIOiCbIZmw4SZcw9umqjszsGhy+cIOOhMHipJCST1nywzFPpgUwj1EKwVpRGzYVPj4AVvh8apyOQ9Okkrj/ZIk8Sa0l5YmTENm5ufh6u62JqagorKytC1Gw2i0ajAeq5ULjzW0TZEC5PQR4AEALLNLG0tIjFxSW8//3vR7PZHFEKUf55NBtNLBxYiHX3Atx///342P/7sSvSUAJ2Ps3L77kH73znO3Hw4EHfSJBR6oKovBHJmLD7pjzPw+bmZuLld+VyOZkOv24p/M7Ke7TebK1/Q+mQJL0ZU//GwOg6xRudhDoVV4NtY3cMjmwLQiFByLyQRUJleQvJRNpUEARPhwR0xChcGfkxAwFzMufbAHB0tsyklKcwCzKNxMrDMpnVMzAMAzMzM3j++edBKRVa5mazCcd1oajqENnQmGxs08aFixfwwgvn8YEPfBDr62tYW9uA5zngpUP9nItNdiSDoMu1tLyEXC6HtbU19Hq9MH2tVsPly5fRaGxKUojeEFtuxtw1LhxYXlkGURT82q/+KuvyCAULIX1Mb7h4/X4PhBA0Go3ERX/BymMypLxjdWyE3oziJ7muSnSk7A3NVxKdcWUT0InpDeU+4nnaCeyeh0O5H+KIWEyvAQhr14R4YXyfjtiY+FEDLwZiISS0xjRUGCrQodzbZRsZz5/PC9d4JeUJVBLFiDwRjaBULMEwDPR6vZjBURQFly9fZjuceTo8P5JsNht1/Pqv/594/vkzaDYa7EB233OI1WVCokqgBIGEtwkwDB29Xg9/eP/9gDQuwg4o570sjh8iT98izFsgcQKg3x/gs5/5DBzbxm/+5m/iwIEDIApJKG+uKOT6S4G1tXVomoZWq4UTJ04IRdfr9TAzMzO8vLepNyzpML2R6BCfDuXoJMRM1L+k8uYTbyUbPt4WdSrBjl0xdm/Q2AeJSQ1R5oYnE4wHoaJnuhWdGLEkXuTvUvwYL8PoyDS2ojMsTxR40U0vQq1Wg6Iosdsa5ubm8Pjjj8fpYLhsXM9DvV4Lz0vWDR1GxoCRMUAUURWGKpeQJ4JsJgMjw7wxwzCQMQx2VKeqcnTE1nKYbIiiMBqZDHRdh6IQDEwTf/VXf4UHHniA3a2+RXmHjzh5nD17Njx4S+5SraysYGFhITGb4heOz5jejOZnGBL1b5t6E6PDJxgmmwQ6hA+U8xR8GXNLyyjswUrjYUyT8H/Yr+VDYjWAShH41L7RF2INq0JJMTg6fIwkEnLpC5GuIk9g91RtbGxA13WhywKwqfFnn312G7JhP4JdykRRUC5PYnZmFrMzs8JxDREJyn0XXzK2bISKFDPVgqSz2SxmZmewsLCASqWCTCYLEALLstDpdIbmKfn1JJTNhQsXUSwW0e/3YwZnbW0NBw4ciLggYp4iX0x+w3j6FweR0iT5D7xUiMRPErnx9I9/vl29ISAJ5bd97LrBGW4jOT8QFOGy09DVI0JMPrbYHMl+oEQngRci/U5UAkmp+KjDXU7Kxd9mnsB2jQebOBcXFwXKBw4c8Bf/YUzZ8KFs7KLb7WJzcxP1zU1Q6e3bdqND2zSubFgE6v+noBiYJuqbm1jfWEer1cJgYIpiH5InIpeTJOMXXjiPQqEAXddjhnVzcxMHDx6MEksMR9snRmjHSP3jeOHpbKU3gdXiXTUE8k2WcRxyneKTjlunOFy9vdnFafFQdnHNibedQNAnJX48cd+HlHO//yvTYTNRAR3Jeg/hhX8n75tQyvPC00lu+ZJa3G3lCWzxX7vdxqFDh3Dp0iXcdtttYWiwk9xzPTZwPIwfTjaEy7OqqqhUKtBUFZQAtmXHrqbxPI+bMhc1cLSSD3sqloGmasK4lGEYqFQqIIoCyzRRr9ejO9ZFoYffeIJBObFf7ItHKZaXl3HTTTfFbtoMDt46cGCB6y1I5U3G0JtR+hdEiclluMckOi3+S5P0bwSdHa1TV9+TCrHL0+JAjPugMeBd+NAVDDwDKZ0fV2hYovqM0JsIlY+nw71CphPwIxMW/sc0K+SN15GrypMfJV/Io1QqoVqt4rHHHhMGjgkh8DwPtm0jo8mOqiwb4vsQcQEQhUAhBEomg4WFeYFKv2+i3W5BVVTRDeR5D6dyif+GaKYn8Dx4CVBK4ToOiKqiWqlAVbWQXrS3iyCXy6I8OckOkk+aek+UcRAUydi2bGxubkLXdWSz4p1Tnueh1+thdmY2KkG5TzVOeSfp31Z6w8UVXoeAjqw3/n95HCUh/1vrH0br35A87cQmzt2fFgdED1Uu4/Ch/0kRV4Akk8vHCfahBC5pILVYMk4JqPiICnH8yhSjI8YUeElS0sQ8SRmQZFOtVjExMRF6H7xH4Lou+oM+MtkM4hnhSbN3E+5n8Ol5FKpKonUuofyAXC6LUqmIicKElB8p31J9olKcaBKFwHVdtNsteJ4HovBbH0V1pmCGUHgHn79QbxJ44WRs2VbYfZRv2/Q8D9VqFSp/5a+sN4K1lETAsSPoDYnoUNCoZxToRWyNS5RkmN5QgOnfmHoTl80YdUpmKym/V4ldGsNhiizoDJeBaK2amCsqfQaUYqRjqUj0FZF8KZdI1l+BnySSiXaCJnwb9gCCDicFJ6U7fPgwut0uVFWNrQienJzEM888E/4eqROUtV+O44AQIJvNgBDm6HselSMyeoRAVVUomhIezcn+uN+aBlVh35UhcRRFhaqpUDUFqqZCURJ2PyNeTmFJDvH8xdW/yXSajSYIIdjY2IjdtmnbNjdDFdcbnlZkScSAyAEQtmcKdIQtl1SIEf6Q12cOg/yO0XUqWTbya0bVhUTiV4FdGsORs0fFPFA+nuRfcK0nTaATazCIGM632Mn8cK+N0fGbZspU5vmzz+P8+fPyeUdiN8JvjXRNx913342JiQkQQtDv9/HII49gMBiE71FVFcViEYQQ2LaFTqfH8iS41mzjYSaTQa/XE1bFLiws4IknnsArX/EK9n7eVaSA49h49DvfQaPRACFArVZHvV6HoigolUpsXxHYOBf1fC9H0KvIV4nJJnzPEBOc1FoS1vGSxT4KQb0JZewF+RS7IsPoNJtNGIaBzc1NYQwMAAaDAZu1olFXlvgvpH7eaKhnLJBSiouXLuHC+fPI5fPhmFe/18PJW26JztWR6ESsRnSEsyJG6l9C+Kg6JdCgiHlUV1ynrh67uJcqaCS4yi97cUNO/IumBnklo6HHwOJwLUhQOAERGvk04e6RBJeYpxO2EJRiaXERTz79NP76rz+Hr3z5QYDQGD3i8x4oYKGQx6/8yq/i0CF27EF9s4E/vP9+1Ov1sPIYmQwOHTwIRVHQ7XZxeXU1dKuDA6xLpTLm5uZQLpdRq9UEgzMzM4NnnnmGq/sUjuPi8ccfw/r6OkxzgAce+BDOnzsHStgmxrX1dUwUJkLjEsjPgwc12LOUUG78KYah6z+qNU4Ko9JzSsJySNJp4r+XEmB5aQkPPfQQ2+kdeA5cORAQnL7jNBbmmcfCPCiCpaUllEolrK+vxy6/azQaqNVq+MqDX4k4oBDG3YP38/z9j7//ezz04IOYmppCcLj5xkYNP3Hfm/Cyu1+WKAaBDqXI5fO4+2UvQzbDPE3Z86FBZE5Pg8aN/aQR/WF1KrSiEjPgF3puo07tAAjdhVvV4nufoq+80otNFWWVGLy1jVpcYfuK5BEAxG/sJWMQRApaMhJRDJbyU39W4+GHv+V3NSi++Y1v4q8+9zk4jgPP8xLkn1wimqaCENXftEdh205cOPwBTVTcYQ0Ag4GJo0eP4PTp0ygUCnjVq14VhlmWhc9//vP41Cc/BQB4+OGH8cKFF/Dxj38czz73HEAB13VC+buOi83GJooTE5hfWICmqeBrPCFEOLoBADKZDCYKBQRnvQhlxZdHwDen/KKes1ie56HZbMB1vSj/YTmK/k+v18PG+gY8eNA1HZlsNqQp2jsCRSF485vfjLvuuguqouKuu+/CoUOH8NGPfhT//M//jMcffxxve9vbBIP9yLe/jY9/7GMolcvieBFHV84TEM3eybvOWfdR8fMkdrFkb6JareIdv/RLOHjgAF77utehkM9FL+Bf5w8AhTOMYRkMqQv+v8Q6RQNPja9OW9cpfr/X1dqd3d/aICusYO4iKxC693yrOIwOFR1DAOFO6igdi9Fqt/CVrzyIQb8vVhmCUEmeeeYZfPKTnwxX93oe9Y0Bi0sEVeIqm1QNHMcFwI+7xBUv4J2E6flPCtu2sLGxgXK5jPPnzwt5NAwD9XodH/8vHwchBJ/85CfxzDNPR5VZgusxXiiJv4dSf4DTH8zlVSvwI2isrGS+gVhBCJDfC67lluQCQNM0ZLIZttPbcWEOTCiqMlTp/+tf/iU+8YlPQNM0vOlNb8Ltt9+OL3/5y+FhZvJtm+v+HrBsNhuujN4OqOTqua479s77y5cv43d/53dQqVTwC7/wCyhPTkaTEgAOHDyI17z6NdAMVkVDfyZok660TgnxR9BJqFM74ensWpeKSP3u5HUxkLV6tP4m0GGNkV88lEQbJgG0Wi185jOfwR/90R+h3W5zySIqhLC1G57nSbKVrF9C2QrmJrHLkVCIQ+IF0A0D7XYbExMTWF9fj81UqaqK9773PVBUjS39HyEx3dDDcgjfI/yk8ACo25hLkO4x4PJEILbxibkP01FEXmbIr64jny/AHAyg6Rp0Q4djO1HzK8nOoxTwK/2nPvVJfOrTn0Kn3cHb3va28PAtHuyMnOx4lSihnITNnkPixB5yPz3PQ61Ww3/8j/dL4RSnTt2CxcVFf6Fi4F1SHD9+HC+7+2WJhjcaeABXF8AV8PBSSKITgU9/ddi1aXF5PVqoWoQvA/+b4PJJiRIeA5D2TzJps8FQZiQomIL92Z/9GRrNBrZaUxAPpSN/jng4Ggl54lU0m8mg2WwCAPr9PjzPE1rjhYUFPPnkkzCMOMc8HUVRUCgU0G13pI2SIiMUzJsjROHoDGna4m5PPDMx+nwEsXll7nvk0/Nn/eRzOWRzOdRqdajq1oofeKWapoWD8wI3lKJeryOfz8cMUUImh4RdgU4kxPG8uFf09FNP473vfa/Ihkdx11134d/9u9/CnXfe6V9rI5Im4LpDPP/ErwVXVKc4A3+V2L1B48DsRj84Vzowx/KqioTWU8g1P4sQBQWuaa/Xw9/+7d+i1+tB0zQ4roNSsYi1tbXYZsgE0uLzLbsK8gIuvokZF35eFAXlYgnF0gQIUbC4uIi1tTXouo5OpyOMQ8zNzbG7xo04HcorG6Xo9/sIdodH+ZRkTIO1OVyUwDwH/4aMyY0CPz5Aw1aG8xb9dzOdCCJHvJqWBdfjPLgxZZzNZkEpja3BcV0XnU4Hhw4dguO42NjYiHRCyNPwGpk4k0O55GPKRkBgLCj8UxNFPPzww/jC33wBL37J90EB3w0cXaeiGMPrVKA18TpFo82dV3KgNYddHMOJSoaAgPIj4tw8c+TZxDeYRe6hLyDOavOLpoKvnU4HH/vYx9Hrd2HoBvqDPizTkoQm1IRkSJoVO9cmiU5iReB8OcIZKTkeAVsBrKggREE2m8Xq6ioqlQoajYZgcGZnZ+F6ToJy8/wQeJStqh0MBiiXy9zMSPJAoud50UCqoKPcS6RaFU75AoJRIr6RErwbnle5doY2jYISwHEcNJsNGJksjGCR3lAZR2/1PBeVSgXNZjN2yJZt2+h2u5iZngZVZC8knicpS7JQ4mKR6IzSG6FjlpifiM5EcQKVSgU0HFdk3S3iLzK8FnUqya5eKXb9eIrAhkbuiBg1FAihoISKbqBQKgmHWYVfWe0hhC2Rn5mewdTUFDzXw+rqKjxuYC/eX43zJChNonGi4oOhpRKrZVKyyEAEdPqDHnq9HtbW1jA7O4u1tTWB4uTkJNseIPMj7AES8+g4DjrdLkzTYt1OBHuQSFjZKfXYmIiUtShvSS1lQnxEJS4RgBwr/EbZAsVGo4F6bYPtp6Ki4m8F4hvNUqmERqMRmxIfDAZMDxQCVdNgGLyLGC8nuedIkjI6QjZkiGwgyAa8UxfnhwIgCh577DF8+MMfwh//8X/CN77xz/BcjxvAhlQX4nUqLCeBxa3r1PfO1gYeYVnEVSfMDg0sLQTZxCOOflEul8cP//AP4xvf+AYuXLzgu+TD+EmiLal4cCZtgkcSYkQLxbvaScvYw0WOhEIhClRFhUIINE1DvV5PPG40n88jn8+zQW7ZI+FpUwrHtqGqGjrtDnq9HgqFAvKFAmzLQj6XRzaXAfW9ISZ7z+c7Ek64qTEBCVkSlZYisGaiuAlAPQrbsuC4HlzXgaIoaLVaaLe7bFW0QrbIoyhjCoRHtLZardgq416vB9dzoRAFVPEH4uWDrPyfsWNgkgQwRCg8P4lRguwkOmtx/QMFzpw5g+9+97totlp4xT2vwMTEBO64444R1YJlJH5ky9b8YxTvV4Dr9sS/WIsWxJPpJJRosGgul83gLW99CyqVCt7//vdjdXUFYg3gWJHpcN3AETZSzAdPh3DfpfadnyQSAny4nofaZg31TX/3NgG63S4Mw8Da2powU6UoCmZnZ7GysgxChIEX4TsFYDsOMv5CM9u2QSmFOTBhWSYIIRiYA1BKkc+zi/hsy8Llzjo2G41QAMVSCZPlckI3i+smA4j2I0VCpoQZgWazCds3fuVyCQQEpmXCsiz0+330B31MTBThel64BcM2LWi6Hg3wbiVj34hRStFsNsNjRAPUajW4rocLFy5wC/LEohi1wHE7ejMUYq93a/3jElQqFUxPT+Hc2efx6KOP4vTpO6Jxt1idijykQDZCvHHrFMJO2RVj1zdvipY8UEo5AXsu18dwjJHzMEOXQXATKdqdDj760Y9iaWkJg8EAvX4fsgoIvMS96HgWhihfsIqUFdL4eZJpBNFENWNKQCnFpz/9aei6jmaziWaziZWVFVy6dAkXLlyApmkI6mJSaxk886gHTdHC0/mIokBVcnBsG41mE/lCAZqmoTw5iY7rYdBvgnoePNeFqusYDAZoaxr4hZKdTgeFQgGWZbGjMqgXrgWKVvBTEKIgk8lA0zS0221Up6ag6Rp63R5s2wYhBIaus5bY8+A6zNOhsfwMkzFXVpQNGH/961/HxMRE4uV37HgMIDa9jWS1EmTJV0oh0XCMpsNbHyEWQr0hQLfbQafTwfHjx3Do8HFo2jqbzVPE+Fdap6L3c3SIXHOuHLu/0ph/uSAE4v+nfh2LCiAc1IzNYkWpeDr9fg9//ucfwac+9Unoug6iEKytrqHT7YzgRTaEQKzUgi4PhBUPIyjFLVTkAEVU0JnUAAAgAElEQVR54sOIoqBSqWCqWkW318P6+josywZA4bgumo0G8vk8HNuGpmvQND1a4Rp7R9QqBrcWaJoaptENA5qqwDAy8FwXjucil82h3W5jqlqF47ooFArIZjPwvOCc4gisYjMvKZPNwLEdEIUZIc/1ou5C2FUk0A0Dtm1jcXER5XIZiqJA13V0u92QbrC72zRNJmtKYTs2VFVle9MEAyHmVpQ1geM62NzcxC233IKpqSlUKhXMzs7i0UcfxcrKCo4fPw5N0zAYDLB46ZLY7R5V3mEY73kM0RuOn2F6E89TQjwui5VKBdXqFO666y784i/+Ak6ePBlu55DpEADhcACAcHW3VKfEXPAHyhOhQbwa7IqHE7pxocsqDrmxPEh+IJ8xP3Lc2CQc2wkKy7LwyCMPo1AoYGpqGktLi3BcJ+4GCz/5hzQpWmj5Q6VJpBNLwD0XbwKS9SnItmM76PV64fUmQURdVf1bBwiQS1BOsVGCfPpeGObvAq9MTsLzKNqdNuBRGBkDqqrCNE0sr6xA0zQYGQO6qyOfz/trc9h7W60WTNNEqVxCqcy6K5lMBtSj6HQ76PW7KJUnWZfI59P1PHTabQwGA3S7Xdi2BU3TkctmMTAtABSZTIZtLCUEtmPDc4PWnSC5GsqSDcTCxptUVcP09DTW19exevkyPNeF6zhwPQ/l8iR6vR5UVYVlW3H/k0Z0YuVNE2Q80sXZrt6QofoHULRaLdi2jSNHDuPY0WOgHgVR+dG2iA6fF4FiPEtD6tTOYVcMjtiGc7NUfJ8fgo8Dsf+adMrZCDqEwDAMlEolaKqCbCbjLzlPVgh+vYpUHiNzM5SOxCsVinQ4HUVVMDlZwcz0NAghcFwXjhvsvxqfjvDU99uJQpCfKIB6HmZmZ2DoBlsI2O3Cc13YtgPbsVm3SFGgaRqq1Sr6vT4265uoVivIZnNwXTe8VK7b7aLdbmNmZgb5XJ4N8nY7MP31Pv2BiUI+j3K5jF6/B2tgoVavYXp6GjOzM2i32igUCnBdF6Y5AMAuvyuXS8gX8lA1DRu1GlzHga5p0fGgsT5jvEskD7ixK35VQNOATHB+EEW/P0C1WvEXUyoQt6LE6YgyTtYbXie3KieBTux5cmyAeYG5XA6PPPIwzp87jzf9xJvwyle8Eqp/T1m8bSVXXqcouHRXh93xcMgQcVIujPoiYP4fAgsfxBVaN7kgAzqBB+IPFF64cAEAmwZ2XTeSI+8/RlTFDZ1hHKmrF+SJIqaLgdrzeYoUkmsPZToBFx4w6PVQr9UBwqZuhXwOoUMiMQyVMQi7YcG2bUxMFGEYBjM0/jiJYWh+XIL5uTkQv6vTaDQwME3Yto18PgdN1WFaJhRFYQeA9fpwHAe6rsM0B7AsOxx47nW6cB0Hpmmi2+3CcRyYAxOXL1/GkSNHkM1koes6arUastksPI+tDFaI4t+GWcDm5iZcsH1VocER9IYkyobfhU6lcg6+U0pgmgM0Gg141F/Xwq9P2qK8w9Akfni94fkZRSdgGD7TI/QPlM1QLi+v4Otf/ydcuHgB6js1vOIV90BRSMjL8DqFeJ0i3A+hTvmMC6muDLvj4cRuf4y+Ur6wwihUkgZnpUGH0wEbFNV1DW9/+9vxwQ9+EC+8cB6BoBNsTHz6PeY80PBrcERDxAHXfvB0QisQpxP8juhENCj10Ov3/QFuRHkcg45gKWXZcXPZhmGA34XDbBEBUTSoigJCFAxMC5ZlgVIXtm1BVRQ4jotOp4uM7y1Sj2KiVIwuliMExWIRlFI0Gg24DvPOdKqj1WqFZxMrqgrTtHD58mUoqoqMrsPz2OpqNdxywWs6805UTdxcuZWMxXvNuJLnZEOpx2bFeHkLL+GicwbNz67wyrhR4/RmBD8ynXH1L8DM9DQIgMXFRSwuXgLBPTtep+IN2ZVjV9fh8AZUzpgYwX8+ikYSHTCv4IEHHsDzz59FLpeDYbBWPRikjfq28JeExAU97K2JHkTwLdQsCOU3PEUy1cA4sEFgEllkRA1VcETGUMpJ8qQIx24oKKhEIzA8AGvpC4U8AIJisQSAotfrgxCCarWKRqOBfr+PiUIBlcokwMnW8yhs20aj0YBCFBQnimg1W6x7G1yO55tZ1/NgWRZUVRF2uPNsK6oCnejsXOWEPCUJeivZEIVIDUSyptGYTEeUdyKSOy/bp8OzQAGigCjsFMNCoQDd0MMuIyXczv7YbZKxKhNyKWRPqlOh678D2KVB48hKS7ssxRYkfBKXfKzopEVaQXLXdfDkk09hcXERpVIJJ2464d8wGafX7fWwtLTEzjbhwsKGLFYSMj9SyDDbxXv9UnSuEwCAncGrqTpuOXmzMPPEF/n6+jrq9TqCBXQRL8kWm3/KZqvqUDUNpWIJ4Nb0wLdtmqahMDEhyCSTYQeQ67qO6ekZqJqCjGFA03ThBapKMTszg8nJSQwGfei6AV3X2XS3Iu5wth0HjmMjKB4K+CucvZAfdr7MGDKG9Jwwv5ZIIaqm4ciRI2yAGxS2aePipYuwbCuSAeJGYlR5x/i5Qr0J4xDxS/SfdQMrlSrm5mZRq9WwsrwM07bx1re8Ba9+9atC2yWQlRc0Crxwc1qExGZNeTo7YXZ2edA4/gvgKnjogvgPKC9qOW2C9fbdXkVRMFme9KeNtWi6kB8wIUBhYgK6rmN5eRmO48Cx7WEsbpGn4AlXHAk1giYEyvnyXAqiAuVSiQ1kBqIIk7EL4+bm5rCxsYFarcY8HipWtuEeFoVpWoBpwbZs1j2iNNkF5/KjaRrzSvzBymw2i2hxH5cvQpDJZmFkslAUBY6/2FDgIVE2TPH7AzO8g8v13GRvLS5Gjg6DQhQcPnw43CXOcsPWAuUL+fDkwMFgEHmToMPq5pYqMcqA8PwKtIeUEyEqKpVJzM/NAb6R5rf4GBkDGYMdOZvL52DoBk6fPo25ubmIBRL8Q+C+Yqs6FZqemGNHrt7S+NibLhX3e1TlELyfYa0JuBbBryOGYSCTzXCVKWHHFAU0VWXHE6haKAjbsZOaKpkjKQ8EhCjsqSft//LBd5G8Ia1NaCxAQQlJrJgARSaTRSaTQbvThmEYoB5l07oejdxpPoXQDSEIRqpt22FXxCgKCAEbbAx8fAr/TvGoIkpZl6Tit5dDa6ZfbWQnjEaJ2Job1s2iQLhbess8AeDPCDIM5lUVi0UUSyWOPpcF0brGPM2AHwAgKmeNqW8cuZkHQojwfpYvL1pUJ/r4ES80ejsB6+plMhkoClsgOVEsRkeRSEaAUnZe02te81q89a1vxfz8fOTRCR6WyFcYLtEcVadC+e+A0dnde6kowlyFqwwEF5mzwOGJf1zzLlQcjg63NyeXzeLXfv3X0Nhs4A/+4A9g2xZy2VyiEQjoKGAHT8lKM1ZzBGB2Zhalcgme52F5eTk2CKkqKg4dOgTDMGBZFpaWlqIL3vg3EAJNVRMVgv2WWieKcC+QrhuwfaMT45lKifwomqbj8OGD0DQNlFIMBgOsrqyCgm0GpF7UOCYaEhpVStEVYUaNF2dYoWlwuBkJtx44rgvDMHDw4EE2xkQpet0uVlZXGR+ilIQ8sCcEs3Oz8FwPnU4XmqpAUVXhTJ9YMi5T7D4sIo1rMebzhQIWDsyDcAeKNRoNrG9shDmvVquoVqthd4RSipWVVXS7HY4HkWe+/hIFyGZyUBSmK9FRr/LeNV7GTB2q1SpO33oaRA3MDeUM3fA6FZrZMeqUaBavDrvo4SSslYiCGMSmB+IvsZUaRkfTNZy65RRqtRoopcnHbfrKFaxzYetATKYwFAldhSE8+1E2G5tod9qgoOz4CylPnufh8tplZhw8Kh5DyRV4oGhhqx94GaEvHrSTBJ7rsrN1qQfXtuF6XsIphck8B3BdG6urq+xIUQq2KM51MBh4/nocgmyGHXwlntbKaygJv0XvoeH0L9/SA+zIiGazGXqfwadl21hZWQmNfvB8JEjExWZ9EwD8bijvUdDA/ongeAr44BcXsigUA7OP5aVlIZnrOEK8VqsVNjKBClvWIKygW54K6AG2bbGlAQBymQymZ2bCLSGc6ZCZ535LJZ9Yp+SyGq9OBVG5+Ysrxu7vFg8RmeHIZfZLw/dgk5QkroK+0HgbQdluYMdx4LkObNcJ3xGMVfR7fVy4eBGObftTwHzzM6Q5HwLTZBsgY1cQ0IAcRb8XnaEseFI0+iAAdE1DvlDAxMQEHMfBYNAXWrmgK7GysoK1tbVYxRT9m2hQOXFcgrKDynkPJmjpg53ZlPZhWqaQjqgKcrmcX05Ss82rMwU6na7gzVFKI+PO8+LfginzIiPWbPnvtCwTweV5wbEkjuvAdRw/Cpuhiwwno6MoCjLZDJZXlzFZLoMo3A5Iwg6e79pdYZ1N0C0JaNi2zbxLzrMIXcMResOXmuOw1eUAoBKWD891QRUCTYn4lmwHgwIhMJwDiNUpGq9TiRxGdFi7twN9KR+7vHkzkhovt2GnkyWelxtrg3zr7y+pt20bvW4Pv/d7v4dnn30WHqVQ/Bacp+Z5Hmx/rEDAsFcObSERLfknUeGGzapUeUYWHaW44/tejN/6rd9CaaKEr/7dV/HhD3+IrVMJX8m+2bY94sDuoEX0P/muTcBSwGrAVyJjQevvH1MRKKDHczJcNsG2Bp7PUcsQtuKFz1NcxsF0MOum9fsDnDt7jnmVYPvAjh87hmwuxxlhiupUFb/xpn+L/+s3fkOszJFDKZYd31bweSBEKH5exkmySXoUnDjY7nTw1FNPAWAHbh09cjTUsfB42GC/WsTZ1nVKMB5cSwfCpRtx4h/3rivFLp/4FyjUTp1OFtHp93v4wPs/gG9961uglN0l1R8MuKJQEDtxjcBvsbY4cW27J7cFeUq0ZkHrwbnJXNk/f+Z5vOfd7wEhBM1mE73ekEVpAcUEOvK7+IFiMZ88P/5jKlJgX/iyisKjFpSLz8kmuDJF4oZ7fzK/4+UJQ2TM4HmB14PQCDx35kzsdgZN0/DUvz6JfrcLLTgVULovhQzhRejoyI6eTCdJb5L0jzDDE6wytywL3U430duzHRvNVgtL/z91bxprW3KVCX6xxzOfe86d7xtysikPGBsSA662O9NQXe3+UbYK1FWIH0W1KMMPsNT0L1SNECDgR5dEiVZb0E0LuyghcGHARqqyDHR12RbONHOZdJrMfPnmO99z75nP2WP0jxh2xN6xzzn3vcd1O6TMd8/esVesWLFixYoVK9ba30en00G9XmfNPqE5JR5LzbyAweXL1d4WL9MwTVqFkLIF4uhwT09PMZlMMJ1N8XM/+3N4+eWXYWkaRw5iri1TaIJlpdSIWkR/4Wvk4MiFtYh6KXATHGP7C5dd81OLWIVA3SDAxvoGy1hp7FPmy5GmKQ4PD7UrGiw/V7TQPiP7BCjjtFBGmeHw94uHip0apkkKm4erWKWZgpuFVnF1Gj9apay02210Oh385E/+L/jwh/9JJpiMc4q/KplTcn7k+sT0haKwepRytTYcqcuWVcioJMRAiRMoaEpxcnKCX/qlX8Jf/OVfwCIWBoM+bMfhx6mrraxGYbOEcZZO7hKAajVBCnYkTeC6LtI05Y5wBjWDqnBy1zgvjc9q1S4niHleq1XXrwU0NvXJ7CKwuJhQKSwWhMC1HbhVFylNEUexOcB+HvZySfboZQn/qaXPYyM9eHAfk8mkECw+BxDAAp4xPV+KweXK1cQ0JqU/coVC7V6hpniQshQfv/Ir/zu+8pWvYGN9Azu7O3jmmWdR43v0lZolC94TgQ/785EEu/zI3CdCLNTrDWysr+Ntb387nn32WebRW9rYAtosbF/9TRdWMSNqREG+IqYXC2GqdZ8UjXP4lIw3zTEHAcFau41/8C3fgmeefhbNZkvH5e+Tb0xwNPyWwyFg28Lf/Pf/Hn/8J39cUmsBHNMkMTamz81HLd+UEf/iJMF/+N3fxUsvfVl6k967dw9HR0eY8YyaJhwKQl19VpwDxS6ULDha5LZL9InSFEEwByEU9+/dQxRFmM+D1eGshE95n9THJtqwCcqBkXKmX3ExRppQSMOAwcfpifapDEb+W8oum47G4+x4HIuHQOKSb2dJ/0vhUOid0youp83m5iZ2dnZQ8SpSczbxjdGjSWynCv1QOi/G/jG3U8A34FjcFL+fKr/YNXx2ZyR7IzeS8ptGrQ6LEB4iYYp6o4FqtardtC5qjbrHZzl/6JitBMcITN9EUeWJcDZrNBrY3d2FZVkYj8cYjcaXhiMFg1qo6VuDar2gT4TSLMOFcEZTDACFm84lqlDKHfzSJFG8rIt90nqcu9cjQBY3p8U+ldGmOERsEgrfF5G7q+jZXsI3S2j8eHwjXhpok4NzdnaG+TzA3ft3cef2bcyDAHEU4eZTT7GjfiA3p1SPZDXinzoT84rBkylXYjQGzbu064ypsLCsRBUfBqIsJ5SBw3g8wic+8Ql88YtfxN27d1lME+4/ohcOh88OgqJ7vcrE5aycx52qnF3CfPkneeiARVjIBoC59bMV1rR8LoaTx4et5mY4srrFApUFYagxnqmIboob4y3ByAtKmqY4Oz3FZDotNRKvoBjlKi7ok1afKFVMdMzg+L6Pt7z1LYjjGA8fPMR0Ms2muSpVS/lmBXwW1CtyHntqPs4owvF9H9euXcP2zg5arSbOzy9wfHSMn//5n8OLL76YfUEyGEShjSpY8uKbCSaSMcBjlm/A5U3zKlh4r91/odDEEiGo1+r47/7xP8af/umf4uzsrAAjWwOEmmpaddRtTtmqlMfUPHnL+6SyU0FvZWlRQhZqUz8huRycPD6Z/KO5KgQWAfxqBZVKBevr6zg4OMB0NssJBeYo51c8CTOKY0RhiPPzc1xcXOQwM6ALgKYUlYovb75T/mw+n/MhYdqPRQhzJuQ+U8L729zNZWs+UHraoFJP3imLcPf2XRZXubB1XAanKIiM+KwCp7TGYnyCMMDdu3dx/8F9vPUtb8XO7i4u/AtlPJfPqYI00SLDKf8+ptC52rtUAApTXi4gQhMRfxsGngBIKe7dv4ez3hl+57c/hddee52l8Y1FCFE+iKZZIJ7Jaob1g2SP9TjMhqEuWdT0rcZiXNI0wXQ65WlMRL91v4xV4JiLYBqh8rDKjutid3cXrsvi03S7XcwPDrLtDqdNtVrB7u4uh0TR7w9wdnYqryysUmzbxubmlky5C4AHUd9HHEc8iwyFZTvY3d2FbTvcA3qCg8NDg2aUVzFWGG/Tt5w2BOw6TKvdwvHxEWr1ejHXuMo3BTj5n8UlYTV88nVK+mQqlAWekzYoLsDla8XoZJxTAhU10DqfI5nMkgmfH6tckR+O/Iu3Cp1vCDSbjahDlE9SSvHgwQPcvXcXv/fp38Pt27fR6XQQhiFef/11GZazbEujYyD3HCtr6Cocqj2h5pclzJJptQSe66FWryFOEkwnExkGVftuGRy1TyoCpWoHeyhuiFMASKnRtkIItAuQwovXBN+MT9ZW3uCjb33ZQFiWhcy/heruAaY+KQInX60MF9N427aNdrsNCoo0oRhPRkjiZCGcov2qHM/L4lNW9KrFftfrdTz77LPwPB/dbgcf+4mfwLe9+90aAHVOrYKL1KufkMD5/0/Ev0J0Mn0HmyYpPve5z+E3fuM3YNs2trd3MJ/PMZ/PmXYjaaGKA5EdwrBK5tXEBavJQjjqnyqckiWO8soWIajVa9jb20UYsrQps9msKASXwIFs0rDqLlhRy31NlOyVizQZyaPLabPMr0XAWOr/ku+TccbrfFOgjWFBYPy0BcdhebfChyFm8SzXJ52YND/eeTxRRpvcByvwn3mEi/3e291Ft9vFa6+9hh/+4X+Bd7zznYU6FNkVFdGkNi9zKFIA39wR/0Rv8gul7FP5jJ3P5kgpxd72FtprLezv7+Ng/0AehRfHvQhj2dboScAp450syDqB73sghODk5BRxHPMwqMp3dBEPlrBe3qttCT5lfSqruyptVmlDh7E6jsv7tHhamkoSx9jf38d4MmEhM4xfGZ49At8sg2MCtpovPDthu7i4QJKmuHP3LobDAbrd9WJDuUUoL57/PsvVG42NaSHBVOO80FH2nYQQPPeW57C1uSkvaLqOi0q1ipmW3QBSdVTDIog1gubqFbi97O/cg5LH5me6jAUhBLVaA5ubG7AsC0EQYDabsZQwK8DJfuiY5C9mGstlaVNWymizypawlDYL9hclcOTOmJj7VApDkey242BzcwvVKrv8OxyO5A13xpp0eZ/yeEHHx9ivMjhiEPP338o+4I+PT04wmU7hui5+8999EmmS4Fvf9S68593vxubWlqKWlXCy6GdOqBNK9On5GOXqM2/mt4w5RlG3RuI4XBgWozDE5/7T5/D7v//7eOVrr/C4vorapzKcagATQHOMo+zIUaAyUNQYTJPc9Ksw6TI46vkFsawMPjWsNCvBUfEpOUrNCyr1FruAc1naGCULcrAflTYwfbmgT2Vw6MJPxEOLELRba9jcYovZ4eEhD6Eh6hgWyTzEHG2KGzsUaJNhWCZILsd/nu9jc2MTzWaDxekmBGEY4Bd+4Rfx/ve/X2IGLjyU/8k1X+LHm2JbL8Ejjy9wvmki/hEAju3gxs0bSGmKXq+nt0H1HxmzKNQtEa2sbVKsY/CGzRdjjXy1/PGkmA6pnqmggFXB8c0Mp7wY+qSrWo9Om7Ilny6q8ffVp8eDkwLo9y/QH/Q5OShISZ+KEMy0KQibXB1VW9DgGPuk4Jsr6pMwCHFwsA/LIvjWb30X1jfWcXJ8whY2ILvYqdLKoPWVRfx7ErGNr+QuFVH+nxVF0pD88+w/KmlEcev2m/j4xz+Ov/7rv0K302HxfLlA0gZTHVtKIRP6LCxLGDQPwwiPLn1POZwkTTGbz/nJD8eZ/83/p3NlCRy9vcIsXNwnWgZnQb9MZSUYCpxL9Snf+uo0XlwUvqHM21h4RHMol+tTWSGc/54InGX4cI9ufuqY2aNUicLnFIGOlwZz0Tg9XrmiRHiA3D8pyq4u4dlfwhNY1RQopXjt7/4Ov/Z//Z949dVXcf36DTQaDfTOe5iMJ8Y2U5qif9FHHEdQXCx1vOS/ynpkWIS1ymW/1e9yC4fpuziOMZ1McO3aHhxbz9ckvpvNZhiNRmoTiiA1wzW2qeyiCngtgfNEaKPCWYE2i+BkyFwCDv9A7YtlWeh2u8zvhz+PwhD9fj8zAahwTH3SAqxltFllnNQ/H4fGFNlZWLPZYjngAQTzGfb39/Hub/s27O7sGhXmrIib/iatVLTxZMrVHYvLnuSEDkUmcYUap9VlsXa//NJL+MIXvohre3toNptIkgSbG5vY3Ng0NpemKY4rxzg5OdE8VkuZVKC5ZKExl9xoij7l6+QUbdd1cfPGTbiup3sZ86qTyQQXF8xjdDqbYjQcsWPqpTjmeklV5i6pY3yil0emTR6XJbR5dDjF4nke1tbWeLogQGSBdRwbW1tbcFyH04diNBxhMBywiIaGxX9V2qxMJoN0KX6btVyr1bC2tiYNLESdLITIIFyUUhweHOD07Aw//uM/jqeferowp4wrJn8u102pFTDN2xQE7LLliiP+sR9q8KLywVFixxKCd7zjHXj7296G0XDIEqolxeR2amEerpsYj0ZI0wQpD15OJT7ij/zad5k+ZTAKpQCwqF8Q3jdiAURJwCvU+Xq9IaO4nZyeYD6bI4qiLFEcBBOogrqoN5qnS07YEOWJTiRdHV1YyqIh6nXMuOj4lkVVXHU6O44Dy7JQqTBv6Wq1WoRBFB6j7DrFdDKF7/uFsKL5hbA4PZcVQ5/ydDYWKlMdt9tt3Lhxo3TiC1zTBLAdBx/67z+Eb/mWb1GCqKlBtFS+UVVzjo+SpWJ1qi8vVx6eIusk74ZCO30OK6EqbQvf9d7vwo/+6I/it37rt3B2dgbXdZBlDM/+EQBY0jNGQMf1JFHrtRrO+xc82yZjdLNazu6a1GoVFiNFZAKgFJPJmN27UYai3V5DpeJLiEmS4qLfRxLFCn5Uzi3LtiD2jkQhknZSIDI2cCEtwmMmSYokiZl3sLD3CLVY0liZMGD1LNtCp9vlWziKOE5wcXGBNE20m8QU7P5Tu7UGQpimNR6P5ftyASSM9Vn7tgW02124roMkSVje8UIsZtZh13NRq9QwGA0g8j6Ju/GEJfLRmhbmOdFRloPMguPY8H0ftm3LdCuqAKGSb6g2m+I4Zrm+fD8LzyHGTDAmAYAUwgAuVn6R/4w/MNAmlTRWt0H5PkkZT7N8VyLPluu6mYe4SUGRcyqFbdv48Ec+jLe97W3ZK0nNbCjzc5P9Y5qbi8Z99XL1WRtkJ4urp5Sn2s1l9pdlW/hv3v9+vPTlL+Pe3btY66zpcAUcg+bBBLqFarWCGzdvyuRoIg+ziZJxFCOKI1SrFRBiyTCZLEFZA2enp6j4FdR5hLVWqwnP9wEKbrBLsbbWQZLoGQtYVL+Yxe4hIrWInuu60CfloW3bsG0bSWKj0ayjWW/I7IxFgrDep0mK/nCA6XgM3/Oxs72DlKYsRQwIKpUqtre35R2iNE3gOh6nMQtIPp1OFJQWtQYOI8XJyQmiKMLu7g5qtZrMwnl8fAxCLOzs7sB1HBlpz/M81Gp1NPoNFgXRcQCiTsisFZpRDgAzwg8HA8xmcziOnYtdnGk0eoqbIuKe6+H6NZary7ayHGGj0Qjz+YxdgaBiN0QxHI4wHo+xsbHB78MxwcWyoWbjJoSFuegLBqXMfjcYDEAAONqWm8ptoeR1bU5lOpeIJpk/HZSRGFRe057pczM/to9TrnBLVaBO9rKoZyol+21xlS8TREQHp+wJCloLT8zmui72rl1jua5NKxFldSfTGWaTCWzbwXQ+ZQxMmZNYtVqFY9toNJpYW1sDpSxlbJLEUj23bBvXru1pjC/i+c5mM5yenhrkXG5lkStrkZyOY7NIhzvbsGynhELzsBUAACAASURBVBlYA0mSoNfrYTgcwrZseL4HEKDVasHzPFQqFezt7vIwGUzYzoPsBK3dbmN7awsA2wqL9TkvBJQmkaYpKpUK5vM5Go0GPN8DTSh2d3fgeR4sy8K1a3twXQ8pTxEjNMhqxYftOMwAWmY3YFq/lMdxHOP+gwdI01623ihbIPZ/OaXN+wTCFhSRtNDlPHJxfo7BYIDr129ifZ1piBRUamzj8QgbG5tot9sAKObzgIUqpakkSK1WY5rlCrM2pSkuLvoIw9CgDRJ9Osn+ZUKi6DaU3xopbzVhZaBNYdF7PLFzhVsq3mmTg5vyt8oaai21n47jwPM8JEmCJE2kIFLVWXlcrkJRrIzSzSePK29M3La1bAvdTpfl0gaLoh+GIXy/As/1lA7mjlQp5G91cyMb5sKSyjNxDolQ5hjCtZ4Capw2Fsme5llA0w4JAbEIatUa/IoPmzC7hmVZqOz5mE3nsGzCfTW4yq9F/OfbJLkl4XSR7/XVlmlqBBax0Ol0ZC5y27aR2imSNMbW5iaIZbGg5YJegowmCYvcWBGVV6CtPXn/Lm2y5FZvqjzL/pYJcyFy0g+GQ1ycn+PZZ59lmpfnMroEFM1mE41GA67n8smprhYSAYm2KvCM0S81DADNhZAUqnI4VKcN0V0oi3OKv1cUH5Kjjb5v0+E9TvkGRPzTiz7pxa+8tCXah7Ztw/NcxLGFSX+CF198Ec8995wEEQYhvvCFL+Dg4ECX6MrcECtkWXFdF0maond0DNdz4Hs+ALDEeVGEWq2GZrMFmlKc9U5x3jsHBdBsNjGbzRFGISq+h2vXrsP3K3KAxeA7NrMzHBwcZAnaFAZs1OvodLvaCi8Ub7OkLKExZRdfe+c9lqvatbV6URxhOpxie8eHzduaTWfo9Xqo1xuYz6fwfB+VyjakkVVVwQyaRJlqJm1uJJs5FEAURjg4OJBG3tFohHq9hmr1BpfNpNAnFao6voVWlSPulKgOfQRxFOL4+ERqEcPhkG2FlOWdgsC2LdiuI8M/JGnC4KUpyw1FeN84Y1FKcXZ2him/47e+sYFavabzYkELMRSS09VplvtdyAct3CnYNorxk50DZph5ipAp0s2AzOMpNwCu7PKmrgKq8lJXzYn+0ZJi2zaCIMC3f/u344Pf+70S6mg0xssvvQQA2Fxfx/HJSU41FYa7PD4ZlR2+dZrNZtJ45zgOKACHUriOC9siCKMIYRiB2BY8x82cEcEMx3fv3sXNp55CjWtIAOVbLgue5+Pk5MTYt0qlgsFoKLGc8rtWjm2DQGgji2is6IuEoF6vo1qpIE1TliUURCbYq1QqIGC2niAMEIYR1yIdJCkLvTmfzeG4Do+hA0m/PMNruCi/mdmX2bBSSiHCcbH8USFbRHwPnu/DjyIQYqHX6yGOY+zs7CiCN88Y+dVf0RYpxXweYv/hQziuW6BxHMc4753LUz9mp0s1zgAoOp0uHMdFEIY4OzuD5zHNNooiNJtNtNtt2JYFUCAIQ5ycnGD/8ADBPAAhBEEYwvM8tFotox2nVH8wyIjReIxznsa62+2i2Wzi+e/4Drz7296NP/rjP8bde/fQajZZ8sdCQ8WVKr/g52s8ARmjlatx/MupgtJWTpRpnl8lqSISSM4mk1Xh/7JtiaiTUorReAzbttmpjOsgCCOMpRNdtsrJpvXjDgBsIq5vrAMU8DwXnutjHswRhhFEL5IkRqPRQLPZRLVSgW3boACCOUv/e+v2bZluVludspYLGgshhIfemLH6/J1lEcAFHKe42uQnPZV0orBtGxsbG6Ap8+cJw0iegjiOi1ad2UqSOEYURnBdB7X6OnzPR62WIAxDxEkEYhE4bmYv0nctXGWXCyfbylmpxfUdVetRdAjeua2tLVSrNViEoNNuYx4EmM/ncBwDi6oeshKQTgBKmSATF2PzSIuEb7ogYwbW/DxvNBpoNBoYDocIXA+EsJMiz/Pg+x48zwVAMJ3NEAYBbNvG9evXYVk2CNhpYBzHmEynqNVqsMUxtbKDkXMhpUjSRBMCtUoFa+sd+J7PL/7WIFImz+Yz3LhxE9/3j/4R/uqv/xqvvfYa0GxqVKarzCk1IZ8imKgybE9C+Fx9Xir1R06p0Temok5RTyZ8NpnXBUYsYaG3LAvNZgv1NEWtWoFl2dn1AXm3RD1RyNTWwWCAw8NDAOyipW3ZSJIEacriDgvjYpqmjIksi/kIcTTYxMtWdRHAivKTKjNdoO2dVU1WGJ3TNIXruvLUS947E7B0eSopRWmKKIqwv78PANjd2QHxCINhEXbMTrhabvGTHsoS4qUQSQnz4kagy9zpCUV2TMyFQBRFiOM4s2kRJkRpmjI0uQZpWRYsiyClFojFQo6KPGNUNWgRXYNjx9OpPBkKg1CeBor28jQRdFFp7zoOGpUaKKikrbrX9T0P7bW2hJnlE2O0mYxY5odms4lqtQLbZtNrPp8jSRPEUaRt8TQGUH/LVMoEvu9jc3sL9XpDsmu1UsVF/wK9Xg8f+MAH8N73flfWrYIHqcIUpjklq1Mlg4RBwpDCB49UrshoXGTS7J3xA/n/hcaqkr5X/Cp+4Ad+AJ/85Ccxm7Hr+rZto15vgKnxMYIwlRMoCAL0emfsDkqaIopjEEoxmU4xHA5Lm4/jmDEcpVhrr2EtpXLbNR1PcOfeHcymM9y5cwee78GxbKxvrOPo8BhRFJXCzfOi3l2KRrMJUIrjo2N2dMqZX8wnze7DhRwIAaEUQRii3x8AyLYyQotwHAetFnOPB9/+UM6IURjzQGeGI3jK7uycnfVQqVTQaDTYhKXMviEjGXLckjjByekJCADH8dButxjdaAqakkyQUoL+xYV+3YATgtlMiJxDSZpgMpkgCFhANsqFp24DW8BLAGzHBiEW7t65DUIs2JbFto4Wa69er/OTqGxoTk9PMRqNsLOzw6DLHZPu+wPKBG+apCzfeS7iJJGOdqzvnuthe3cHjm2jXq8zHKSsYrFvZvMZ3vKWt+DZZ55BFl4kO7zI6Xzy/9qcKk1PY/j9BHScK9JwMgIUtkamDaNBY1a7mqnjhqYIhed7eP755/Gbv/mbSJIEruMq2zDhnJbZdIIgwOnJKZKUZU0Iw3ClXg0GA94mQaNeR0pTJDz6ILEJZtMZkiRG/6KPvb1d+L6PNKVwPY+fgJTI2xL53F5bQ7fLTszSJMHB4SGOj4+1OltbW9mETxMcHR4jCAOYihoIHWACJwgC5jNiWzxlMriBnKnpqRQe2dYTlCKhKQb9PpJmU57oaUVKQ2ZsHQ6GiKJIpsexLIIkYcfIQuBQysZG+ACpoDprbXS7XaYpUZYYkTkniiEh2NneRrVW46l8ExwdHWVjW6Ax+yOKIpyeZkH5a7UaEyaUcofJrBAI/5w5811yHaQpxenJCaazqdSmkySWBuejoyMQiyhxfEiOXhSe52FjfRNra+3C/KBUrN/KKZ0FEMXxXgg6qnxngsMeG+6pF+oXtiKPXK50SyXtCtlWPjfuOS4wzEbHcRTfFr0CAZ8DedqQ4k+53aEUSRwjDCMkaQwtomapRMgVSnHW66HO9/oWAOp5LE/WdMoukg4GsCwL9PRUprNZCJoWm5/N2OmR2MLMc4HHCCEYj0dKLBfKgnoZO18sSZLg/PycnwJ6knEty8La2hoskp2OaFuq3L/L+iTwoGBa4lnvDIRSJHxLRBQvyMw5U+/CbDZHj58MghZpIZzyprMZhH2PBdrX8SkAzj0Lo0iGQllbW0O9UYPKUBTAbDrF3bt3JVlmsxnCKFu0hI1LbZTyPhIC7hFNeNZVgka9hu76Bmxoao2++FKCzIlEeUezHxmWC7QY9VGu/9lWHk9K3nwDPI0NhWl1RFkF9Q23+GXZFv7p938/CCF49dWvFYhQUCQJgef5cBwXYRhqajkBMJ3PcLB/gCiKEEVhfotvKCWzlQDz2QxJHEOuGcrAU1Dt1vdS8Hmtj/8OwkBPnZIvlGI6nQGYaY8FeSUjEoWJqBLxj6/CQiDalgXX8yGc3KhlwXVdOFxjlCB5OIRatYpqtQq/4ms4BSGzXbArFGz7kyYUYRiA8m2swFTcDRNalCqgVLoEgU4L3WeJfTeZmiMJMLz0n5LjFMUNIIijCP0B24L6Fb9wc4EAzMCdG5dMaPJaIryEmj3BYo0mSYI0AdJ0Bsu2WLrqNAVk4sFM1IgY08TKfMVoCgRRiCiOlK1rrr/aoKvkXCSBxCx8Ul44V+ppzP82SNBsxVRlsr6KAIzIzz37LPb29vDqq68WyEApu+cUJwlGoxHShJ0O7O8/xGw2h7wXw0scx5iMJ1D39ssJq3N+QatS/jbdii4baAlH7U8pQsWEZWrTxq24pD/JHPsMWhTA6JjEMRLCvJRPjhMM+0O01tr4Hz70Ibzve76nINz9io/xaARK+ZaRP59Np/jDP/xDHB4dKZH0UsymE7aFIjla5v4qo02+lMhorSxVWFXaKF+pftVE/MW3hubA76aWNEkm7Tqiv0KoJ0mCQb+PA57KJ3+MPplOgJRie2ubb3mZzesPP/uHePmll2GJ6ximwxZFCBqVO9PclLTBk4i/dYUaDjdaij4lcYzhaCRPFjzPg+/5GE/G8H0fruNiPBlLFVtcxPM9PxvonBifTqf43/7Nv8Frf/ca4jjCrVu3WCrg2VTaBzgyOmrI+eGI1YDqtUzsWpys2VO5ahY+y41s4b0ivQR3F/AxtW4UY8Uamg5djo/QeOLZDLPpFOPJGJ//oz/CX//N32gUtCwLP/RDP4Tbd27jy3/6p1DpGycx7t27h9l0xraX+Qm6Am1K+2RcyAx9MpacyBYzrmx/wZ8xLYi1cXZ2hnPVDia1iGVw9OWV1cjqBWGIo+NjDIejgqYSRzG6611019fh+R5msynmYYA3br2Bg4MD3Lh+Pet9PhMKl5ZlIX+zR0LnFQ9Yf8gTkDhXb8Ph5e69e/ipn/opnPd6GE8n+J7v+m68+L0fxC//8r/F937wg3jnO9+JX/mVXwGlLBXrzs4O1tfX8eEP/xMcHh6i3++j0+lo8JMkwddeeQV/9ud/zm8QWKpTq0nlKGDG+M7ErDl1oHS5pODHGoYKws+h+Iou+FVc3g1wjPgogq/k/cr4EGZQvf3mm3jz1i3IbQJlVzDu3r2L6XSK8/Pz7JYJxKrInfX1GVYoNE9jY1kmSB6VxoZ2CrIrk26EWszXKgiyA4BL8k1eQ1VLEscYDQfZCHJ+IgCi4wiDwQBRFOE/fOpTeOrmTVjEytGYHY5MJhNEccQuogLsHqBbnPZxnGA8YUZ3z/VQrVZkFlR5NvBNo+FIcc6oncQJxuMxxuMxzno9nJ2d4YtBgFde/RoO9vfxuc99Dl/60pdweHiEWpWFh3j99ddxcnqCW2/ekpfnKBgxptMZxuMRppMp04ZMt3IX8OnKiyMt+VspRHmprmKXhSOALZx/K8LJe/0uVJQWzEPhRqA5y/EVU/j2MA/X7B6YYVe5uFyCNivDWVQWEdj4XG6qePeVjhoUrwIco6AtwadgMGe/oijiRmmC6XSG+w8eIAwCPicyAGEY4hd/4Rfx0ssv4dnnnsN8NsXHfuJjeNvb3y63UClNYVkWHjx8iP/1X/9rABQvvPAifviH/wXW1zf0o/0nUK4w4l82/Q6PDvHr//ev47x3jiiKUKvWEAQhjg4PUalWMJlMMJlMeGgItr+t1xvAyQnu3rmLTqeD7jrLt5MkMT75yU/gC1/8L/D5LeRatcpOJ3ISxHQrP7/kmHnPYFMovM9aEicFpKBR6UtdMfBXTuLRMqXs8nCA/J+XpA0MihYgr3xY3LU/SWO+fS2BUyqFF/epsO01wimOE7C4T+VCRcGFawvZYpKT4NBpU8YpukFavF6q0hXxUXAgFsFnPvMZaesRTrEAQNMUt958E1/96t9iPp+h3x/gp3/6p7G+sQHbthBHCc77F+iudRBGIb7+9a+DEILpbI7T01P8zM/8DGr1mhROSncfuVxxbnHG0ZPJBP/1b/4rRvwIN01TePAgbRX8o5SmoCmLxxKGIcKA3WUJwxDr6+uMEGmK119/HV//+tdZC5QqJwZFrsz7IC4TJVrlQn/Eq3w7qp5jLsTgnl/kv+XMSPIGIoGPNBDmp52A+WRo43k+ru3todFkvj9HR0fo9XrM6e9RaWy6urBSWTZO5bjkRKsZFyC3RS/C0X+bJLTSBH1M2gAsPC0I96oWGmcGz7IIPM/FxUUfSZri9p07eLi/z1w0uOf6vvuAOTraNqI4xsnxMc7Pz3NbRLJgsVi9fAMi/mVFJB1b73bkHlUQnRCKKAhBLAsuXIRhgCRJEAQBd95iI0YsCzeu30Dv/Azn5+eIohj68beyUhrxyOm72qQrNTaUFrbryFfgfVJwyY6lVbD5CZOfJSVwjIVm/5ZsFVeijWzbTJs4DnFyeoLzi3PEcYz5PDCc3BgmzJKtTH7hL9Im/1ERIKWm+XHJ8dZ+EpgNGeU0LodVgk8JGmoV9VUcRTg8OpQRDsXcoRTonZ8zTZ+w6yuObYOmCW+CABbkRVSAndoO+wNUKz5ms1nBjeRJlG+IHw4Bu4Pi+z5qtSoL/KQyNv9HENG2LfT7Y4wnIx45zQalmYrtuA5u3HwK2zs7uPXGm5hMxlCV8Ett04UgyO3J1br6v3pMe8GPBJkKTYxHv4bGxctSJWTxWiir519qfcpoUgZHa60UDnvkuh52d3fRaDRwfHKM+Sx3+z2/jSj0SQjRXA/LaFOKi96v/FiVgRVwqIE25rpZB7TtbgGfsrR+ep9KF4wF/Jcvenob9kUcRfjZn/1ZHB0dIo5j1Ks1eL6PIAgQxzGIq0bdYY24rovOuhISRWwXc2g9TrlyP5xgHrB7NMpRNwAjNUWgLYvfUl5b66DZbPIg13xIKbC/v88JGeW2U8pfOVWTrQQlA27gepp777g2u5xHKSL1IiZXPUV9389CGQiP1zIaGSc/h+XIeMZJKQzXccp9QwwLt9r/wvxekTZBEOD+/fuwLAtxHLNYMXq3zBPX8GORcrAcztLH5QANH6isIlwdRDAyogodKJOwRFqWNfP4fWIL9+7uLtIkwWg8ZnZDynA+PT3BfD5Hs9lkd/kcW0Yp3FhfZxeAORIEALEIXMeD7TiIoggHDw/w3HPPwXFtRcN8PJFztVsqAty/fw//9pd/GYPBAI5js6sAloUkjhEnCXyfeakSQlhEPcJipmysbwBgDC7qMJcHisl4jHkQFI4lS/g6+7GQMzN2yMkpEAJsbW5jY2Md8yDA4eEhJpOphEkstnbUajVsbGzAsgjevPUmAuUej4wjI1axgmbNXtq2DdfzsN7tglgEZ2dniMOYXVng3wvXgWvXrmE0GmM8HiEMQy54ynWYhc50hXdmOCJMgvF14VkZLnpUuzxtBK6O48B1XIRRKG9qCxzCKOT32LIJ4Xl+FgoCFGkK5t0s/W1K+qSgK8LFep4HzxV38giy/2dwPM+VN8QBSPuksfePQxsF0yhiwcuY75qTaVmgMpSFuDVvWzYc10Wn02G38IUGzulLCIHNrw699tpr+Lmf/zn86q/+KlrtNp6Ur/EVh6cgiBN2q5dpLjZqdRYsezgc4vz8HLu7u/L2c5IkMhzD8ckx+hf9LBwDsiGK06TEB0IpBAUuFjxXjAFbIsWlnCJy5ev1ehiPx7kb2gCxLWxvb4MQgjiKC3AoxAU+RagZcKnX69jb22UepADqtTpOT09xft6TOn2SpNjY2ECtXkfFr6Cz1saDhw8L94tKmfpStCkWcbdNXLhUBbq6LpbDodqfedoATKisra2h0+3i+PAIjudia3OTaR0pxcHBAQaDvpzwhBBsb2cXWSmliKMYDx7cR1i4qV+yaeH4V6tVXL9+nQs4va7KKRsbm2i1W0DKrm88fPiQxeKRXyhUWEgbtY0ibdT2meE3hOM4qPBQrhIGIfKuIAFP/re2hiAMoYegY0U41gqEbC0WEXn8/RSu1NMYXDtgQZ+YUAFsHhKxvdZGs9mEYzvygCXhq4NlWUDKLsVVa7XM0MVXmwrPlhDFkZwphRh+6kRQ9tnmbU6RmfK609HREY5PjqWnNBM42RdpQnH//n3MpkzzSQyG1AKTSVwyFhyNRrh1ayqNzARQNBdWbMeW+BAuONjRdF5i0OW0MeIDo+Rharglw38I+4DeBcL7alaBirEWc7RR+Oa8d56lmSEEQ37HiVLwmEQZO1NKcbC/z2M1i0lOlMiPKm2opGdB9BB2qvrGG7ewtbmBvevXgPzM43COjo9wcnzCAs1TUtheGvlPX3KUeqSIS/6XZi8i2N7aYony+CvbIgjimKVE4vGhbNeFX63Cc1yQQlRAApqmCKIAhFio+j4sfrNdQeuxytUeixPGOGmaYs4lv1+twHEdWMSC5TAru+hfEseYTWdwXQe2Y+Opp57C2tpadmmPAhYh2NnZxXA4xOnpqQwXKfemqi1C5XmhR0rElL/57F4UPyVN08ICxBoU/WUOjnEh6v4yXKANKgXNjjxLtBNCS/CRxj+x95JYyseXok3OsEMB1CoVPPvsc2i1W7h161YhXEZhguQeGylc0tWUpkhjyic4RZyIo3fzBwlNgTg1w5Q8meuTgW/YPadYhmQ1FsJCtKbQt7GlNNZ6r/IfjLTJySitWIQFLLMtSx53A8yg/9TT2zg7PYXtOKjXakjSlCUB4CFI1DYJgAQWD7gWgxBLu+3xBBScqz4WZ384roNmq8WOuWWslhzHE2aXcHjeorWUZgRSCJ7SFEcHR5gHc91mIZKO0QyyYUHL8MrhaCql/JJ7RvJHv0pbEobpW/HSKHwK+hB7ml8YNVxo7kVu22SijalDBdpkcJI0hWVbMoxmKS4qnMfpUwGOeUNSoPFS2oifOb5RaKQGNMijVKTNEv4r61NJkRANfXI9VwZ+y16xbaTrOLAtK9MlKRBFIVJahUXZ+M1mM9SrVcDOrgIFYaCF2HhSEf/KMnM94cKWfaG0ikBGIh6wvPss7SBsvx3HMTsWt2xYtoXhcMjuexBRixXHcZDfj0qRDTOTaEZaYqhQsjIXldAi4II3aQ5qoTmTXDDr0/K9afiLuBi+zb17HNpYSrTAs7NTTCaTQugGI5xL9KkM72Vw8mivThu6YLwVDafUQ1gZTKLjowIspU0BDhbgw34HQYAoVO1S2bfEIgA3XxAQnjJ4TZ56hvMAt998k9m1+GeO46LVbObyghmRvHS5IoFDoROQhbc8ODhkieO1wjo1nU75Hp2VNElxdnaGs9MzGR93Pp8hCOaYTqbK6ppXTYkJg1LNthR9BcYinl9lWExw8jAW4lMGJ1efFGbek6VNxWOXam3bRqvZQqfTkcbtZXDK5tcy2siPS7SkMjhGLjNK/SIMTcHTAJV1plhf/qn8LjS9Im1Mn1KNJsxs0Wq1kEQJQFno2ySJQcBiR4t7WsQmqFYq2UEM334nSZq5rKjJDh6zXO1tcQJQmiIKI/i+jy2eXlZbK/gPz/Vg2TbiOGFej4Q5Jh0fH8N1XWysb+Do6Ei6YJtg8Fb5o5xNJr9AUcPjkkWswHM5Xi3MhVXg5J9Tw2dSty+Dk9symeA8QdpM51PcvnMnMxHxYPGL4BS6cEna5OGUtSX6VNbOctrocOR3hFfLrTqr8E0OcKmUfxQ4SRxjPBrBsmw06nUZGbN33uM3xF3MZnPUGhZs2Lwdgorn49m3vIW5piQJwiCA5diY8sMOrdNPoFypwCEUSOIEo8kEoBRJzNRAE01dz4MHitl8jqOjQ3nc5/A96cHhgRbxLX8HiShbG7l/VerooUKyF2V3mdhfxfWyYPswLs8qHLP/qS4H2C8Nl7z2YoBD84yvg8sAKUg/Fm0oixWsIZiDk+9hMZ7+ZWlj6pNejBHq8rQxwtH5BnnaEEVrzLWwGv/RxTReQJvst962ABlGIe7evQdC7uMd73gHnnnmGVAKVGss9Y7veWg1m2wOqnF0CYHNtZ15FOL45ARP3byJyvq6jLpAwHnrCQidq9lScUQpmIFrc4Ndew+CSPefoQAoi087nU5gOw6azSY21jfg+yxG8NbWNtY31tFqtdBqt+E4rox5lMFRmEalkmkVMSFpqLXgfCIHRdVtae7fy4wYKV0BV4dj6FMZnMvSxhCjh6k52WAY4eTHaukSvgIupvePAkdzkTDTprTxHI1VOHkhV4rPQtos319TClC+CDB/NcDjLguWSOVsldPPIszFQRyhZ+mfn1y5Mg2HEILRaISvfvWrSJJEpuvVcyoxKkynU0ynUxlgK4xCDPoDdLpdtNfa2NnZRbPZRBzHODw8xJhrTOoim6YUk/GEHUsvoVlRPRd7hHxN5UFJFckzBFkupRXgLEROA7wIzuKrE+yTJf3SnigCl7JrGiyFjLI1oixlie048FxXbjcoBaaTsX5ypeFDluNSNgyFPpm6sBqNGb5KQwuFoRoYwgRMwKG55otbOxXO5fkv+1obJwpUqlW4rstCvEynqPg+GwOuociMDoT3RlF4LctCvV7PbDxCk+MVKCWPreVcmcChYHeePv7xj7M7Uq6LdR7TBhB9YoTudrv8SoAlbQLnFxcY8vw/e7t7sG0baZri2rVrxvaSJMHh4RFmsynG4zG771R69SE3sqtEbispBMwJUHfNy2AIYVRoMgdjsRJQDiePi2DNYhyWcjgWT11Sq9c1eGvtNjY2NjM7BpiX7507d9BoNLC5sSEj/KVpiuPjY0ynU6hBqlho2aEhZg7HZsU+KR+t1CdgAY3Vq/sKHIY2UYin6rmGmVfCN2XbPyP/FQZLPGeT3vd9mbLHVDY3N/Edzz8P27bx5q03MQoCVKrVTGtRvPTlesjxc2xHXjUCAEKY4KGlkTIvX6404p9t22g2W4giFnZCc8POK7MicyaYVG41mwjDEJPJRMsTnlnXVT4hgENw/fo1xHGE27fvYDwuX201RiQlfJOvoygHdAAAIABJREFUmKtDDK9K540RjoEryZL5twAfIxxaws/8N/MCt2WK5OvXr2tXNkQdogEUjnUkyzoKNta7u3sF5MIwxOuvv87uGZkuol6iT6XflcIx07i0TZp/wEQOQdH7VuWbQitL+mRcC9RnFkG93kCd5wdjkfiKcACmpbz44gt473u/C3/xl3+JP3v5ZWzv7KBWFUfcRAZaL4CwAc9yQQhb6NXuPymRc4UR/xgxarUKhsNIRoojivootyApxTyYI0gSVLkK3+l2EUUhTk5O0TvvoVavyTitgD6J5D0RQiDyQIuLfkK9VFfBLJg9hcyRDVZB+ghRinq9DgrkLPgMjtDEKACLUh71j2azvGDXEToCKTK2UrV8zqlwdFykhs1VYjWUR+EbUBBiyah9Hs+4IFZDYhGN6TI6IWcUprk6RAnLYcnKWXrcFDEIz5tlpo1eBL1yVVctFFAdjKS8KADM42IEVHxK9RrFX6S4UxL7T5WKeXlIWKqjbqfDsjgQkqkm0BdbkUKGUuALX/gCLnrn6A+HaLZa2Nhgl5+JBbiWMu+0PnMKU6YBWoRwjV03gD9OucKrDSzft+d6co+Y9TcjHJ/z7OJmHKPKpXIcx4iimAXq7p1ja3OLJXUHMqGgNaj/JoTAdZhHZrPZ5MKOvdPJzrchlGA8GWMwGKBaraLRaKDT6YBSiot+H5PJGBXfR61Wl7j7/I4XBRN0W5tbiHjsWXm8kWN8HVeCIJhjNBqj1WpBPZKdTqeYTCZoNOpotdZAwPMZUabtCYawHTtLUau0kjFS1ksR8W06nfD7bRkVlA8lbnkLkR6yQPlO7P3LVnbCDJSO54BETFgnSXYBV9gOMjnMaCS1CALU+JhI8JTyLJh6rqq1tTU4risJlKYpLvp9nkFU7CnE3KfQtleAHINKpYJGvZGLFUNlt9UEfs1mE5VqRV4aHQyHiEOW90yTb1Rmfefd5POAMq3GsR1YtsVsY1yzFPef1AWEShoxGHEc49d//dexf7CPOl+wtSVU2mcymxTN8QZbY/N8+vjlyiP+pVTMOcov3HEtRfaHDbbwchQpa6fTKZIkwfr6Ora2thgTAZkGUbIwaVHLLIJqpYpnn30OtVpVJ7oiCCjft5+fn+Pw6AitZhNbW5uwbQdpmqC73sV57xytVgvt9ppcAQSOIOwaxtPPPK2orzTDT/Gozn6zO1MXF31MZ1NsbW5JL94kSXB+cYHe2Rm63S63W1EEQcg8THkIDwo2EV3XyQRxTsMSDCZuEU+nM9y5c7vcuKsOomnfKCgmZpNxD6g/ICCgBLBgwfI8OI6Ler0Gi98FIgovUD4ukmKUxVRKkaJSqaDVbCGOI0x4hlPXddFoNGTm0E6nA8/1eFohlt2zdd7KjvOVsaA8KaCYgcKYHIYRojBEEIYYDodot9oYT8YytXC73WYLBGHZD9Y6a6jXG6ApBaUJBoMhgjBQWJSI3ukk4rSbBwFG4xHzyCeKVqEOp2F81K0eBUXF91Hd3WE7AUpxcnKCOImxubGBSqVqmDJUtmeRzEFQkORJlCvaUnF1mLJLcCL0QBLHnMHEMpGpioQw42UKyARhALC9vY1Op4P+xTleeOFFvOtd78KXv/xlPHz4UO5LNY1F2eyKrYJYLUEsgDsNiv+pfzcbTbg3XBAQ2LYD3/f5Sgx0u10ZCEx4bWqLPFd9ibysnNVRV5vMHkcQhiyA2HpnnZ3i+T4IWPCutXYbFc+H7dhQoGXChFDFR0TNWKnWgwzsLozbGU1WKHzcOAVlPz/0oQ+h3++zi5uKAGV4CbWkvPi+h5s3b8LzPH5NJeuTqgWL0Bfj8QS93hniOIHne7BsC/MgQLfTZfanTodpv/wETRwRU8K0hqeffppll1D8nUQwt6xn4BOcaZ3HJyeYz1hmTM/3EUUhOmtdtFtrWN9Yx3q3C0qYMMziC1MQWNjb3eOLh7Id44Ml2oTEIUV/OMTd23c0W2VuGPQidgaU8kR+TPj4PGd5mqbsYmmSIIkTBEHIYgWp2U1yayBDK9PJipuvRytXJHAUEhGmoqY0RRBGcF0vp2dy5Z1vrcSrKAwBQhCEAQ72D9A77+Ff/auP4iMf/gj29vawv7+vrE6s3pe+9EWcnJwWtR4ASZzCdoRqRLNBU9GVGpBIgZvIcBQaUKF+UqUBwrQ4U9sFqcj/ZplAR2g1G0gSG2magICFOUjSBHESc5WaaTP9fh/9fh+1eh1hyLSda3t7cFtuAXaexhJvLCiZ6geA4rnn3oL3vPvdMuQDcwYjeP7553F6eoK79+7JFTZKErz85S/j8Pg4p1sppM3/TTPhx4ZRqa8IMZcHkapUKvB8xj+tVhNhGCGOY6kZSrCaX5bSam6RES1LsvFntm2j024Da2vwXA++78Hzuqg3GgijiG2libqxZ1uzLHCWIlCUXpM8LmJh0kmlQjVPeC7kv+Pb34Pnnnsrnrr5NECZoDk9PUW9Xsfm5iZ2r10DTVOMxmN2pUi42dCs70LgEmJJPxxF7y/DYOVy5TGNCXdZpDHl+bxr6npc0MhFJ6fTKZrtNgtAdXaK4XDIDM+ug/e9732yfhAE+OxnPouHDx/i4cN9nPV6mM3nmg8CKBN4NrUy+hlmnm3b8D0XccryaJ2fnyNJEgyHQ3TW1rC9UwflqqpjOxiNh5jN5vLbra0tDIcjbG1voeL72pzPhGPWnuu6aLXaCMIIF+cXTMMhBFEUwXVcuL4H27GZEAUL/nV4dIR6rYYojBAlEZrNBuqNukzbktcw8t0t3GwHZB8f4qFq5oDn+SxbhmJze/HFD+LmjZu4eeMmnv+O70QURfiP/+k/Yv/uPTzc38fR0VGm8fBJEMfioqHZr8NEG7UPk8kYvV4PG5sbLPojoRgNxxgMByyanW0hTSmOj48xGg1BU4p6o84ysMbsIGJvdw+u72VwhT3FoJDNgwCD4RDtVksSkIIJsvFohLhSgee6ODk9Rb8/AE0TNFotGVjOsizs7V1DteJDm+Fa/3IP5J/Zc0KAp59+Gt/5/PNyDFIAlAele8973oNnnnkOYThHihTj8RidTkeaHwgnYzCbMdsOcZT+a41C2PiECkAyqfRY5WrvUlGK4WiEhw8eYGNjg2ktBmWNFjpH0Wy1cPPGDWnwpTSLE6OuflEU4VOf+h385V/9lWYEdRxHnlQxXBZhyr4RN9VJFGCSpjL64MnpKWOia9dA0ywnNKWA47qwuO0pjmIkSQzkpRnXwvKDXK1W4Xke+v0+KO8L7z47aeMxnmfTGaIoQqPZwE33BrODUWafsB0Hb7zxBq5du8aMqhpvk4zrkPG4QCNNU4RRiDROEScxhsOhhvbDBw/xhf/yhQwGIfizP/tzfOs735lpolGEz3/+80zjLNmqObbDjKKOAwJLWbkVXihMgKy4rstSPicpwiBESlMkaQLP81Ct1mDbNubzAGE4B6UsyL7ruohjD5SG7PKvpt4Rpd0iY1iExZpx+KEDACQx06ayrS3hl4pZCmpWn13DieIEQTCH73sF8115yRbHJElxcXHBw8ZSNJtNSdv3ve99+MAH/lvN9iWM18dHR3jbO94Bz3Wz7aJFUKvXWV5yBQGT35iO3xOQNrjiiH+EEFSrVVQqFYBShFGUO5bMi32xeQA6nQ42Nzcxm83QXmtjxPOSi1opdyRL01Rh4IxIMQ+zmEW3F6cgVFF1FRWYCrnOoFUqPqrVKgDg9PRM61en00EUReh0Osw1nBDM53OkNEWlVoXrMLVfHFPLwxCth3yrxAUpIRRrax1p4xLbp+3tbbTbbZYqhwLepgfPYwwlUui88uABOp0uSx4IXbWnKVF8lhit0iRh+KZM0BT3fcpPOTfZH1/60pfwpS99kRt3iTxhWWQXipMYSNhYeK442VPHS1iK8o2zv5utFiqVCoIwQMBjFFcrFXQ7XbgeW1TSNMXaWkfynGWzwFRzoYE6NjIbEeuYaFW2xpv0fR+tVoudANo2t0UyQVCtVaWtZG1tDfVGnWmjnsccKH1fRnukaQoiM5Souqa2JMieJ0kiY1Mn0xiDwQD7+/t46csvAWB2yC9+8YsAAV54/wuAzba64vvpjEVT8FwXYgtsWUQ6DhZ3Erkx5vbNb96IfwBs28L6+jqCIMiMYsoIa+SnlFv62fFtHMfwPE9xGGQxdeI4wh/8wWfwyiuvII4iPHjwwEiYOIkxmUxw9+5ddiJi22yLh8xeUNxhUdRrdbTbbQUSxfHJsfTIbLVa3EiJzH+FECBlbd69e2eFUyBW0jTFZDKB63nodLry+XTG3AFG4zG6nQ7zCRJ7fnDjNC/VahUH+/s4vzg39kkoKClN+EnVRIuHompBKgBxaqiWzCtVCMwFnSP6ZI7jBBQh3NDl6juVBl5d51G3hJn9Kh9d8Nq16+h01uRxtMCbaSg2Usq2HpRHRxShUeTCQzgHUh3RyWSC+/cfwLIJTzPNPKZFDOftnS34m5tyLGzbhmPbEPeRJI8Biq1PdSrIZjRz3aJI0oSHbE0gZrpmFuDl1VdfxddffRUfeP8LsFWI/M/5bI5qpZo5bHIchXFZyhDKAnMNBgN0uuvcB4comhhduIisWq7chmMRJixc10W3o+TA0U1usojTniRJmV9OtSqDB6VJgk//7qfx5pu38PJXXkZ/MIDv+QjDCBaxZbhRAVloAScnudxJS8rm5ibfv2dCadAfMq2KAMPhUGo/LHI+CxYvwjX0Ly5WFjgC13WepUIWynKoTyYTTMdj1LjAEX43ALuJn/KA8ucX58AFCjBMglhb1U1FbvM1iSRf7+zsoNFoIEkSHB+fYDKdlBo3pfLEHyRxtghoaYMWFAJgOBphOBoCKYGwssZxjNOzGkCZdiCOxyuVCgvIkFKMx2M8ePAAtVqNJYYz9kgv8/kMvfNzs0pAWSaI/kUf1WoV9UZDZhURGut8NkeUxDg6OmLxhRe0BTB4s9lMETYmHHWtr0AjAmnH8j0PzWZTGb/sU/UQM0lSTGczrKUpUgK9/pPZUV2VH05maYsTFjzLtm00200pRQHm9yBXA26wojSFOJ47OzmB7TjY3toGwMIjvvTyS/jKV16G5/ks9EUw4sZoKsdk8V4ZJrXG2AWd5nIWYjQaYjQayWd8PVpZA1VZR6JQyN7J3hJCMJ5M2IVVDReDHpPn7BJkCi2VTCxTBeHrsrW1hSRJMBqNMJmquBng5BqM49iwCPA+KV0TG5/sB9GE18XFBS4uMilbq9Vw48YNRHxbEkcxDg4OcHZ2yhwdLXGylJ0wkQIt+Rv19Ex9RYDhcIDBcICKX+EG6V202y0QwmLMnJyeYDwaYTqbItUCzmXwqYbJCoUAnuOiu76B9fV1ZBe7M9sPwARsGEXKgQkKmqb427ZtNOoNiJPkQoNPoFzpsXjCtzRpyqKJEQp2NCekrSpsuEpMKTP4BmGAydEYa50O1MBKnuui0+mi2WpiNp3h1q03MZvOLkcfhXlKhQ7NbB/FUBWKlibmAF2OgtS8ynDSkFsERz9u1eAL5loqdUvKMtpQ4OHDfZZPPE0xHA1LtRsVzrJVXovTI5/x/2sNlEMJggAWsZCkKWgcI4xCTKdTeJ6v2LG00dMblAhnzRTkLgGE7SoIAgTzAGuttua4Op3OWJK6wpYka1luIxfQRtPG+LZrPB5hMpkgjpjLhMUdv/JiLU0SUOHjRBQPY6WezBPHfZ7ENlf6DGEZJy4vV7qlSlKmstmEwLItbnjjaiPl8p1A5p6yHVuuZLPpDI7jyOsFcRSBgAVkr9VqqNfq8FwPnutg9ihUURgv0zKQrQgks+Sb9tJ5OBrDlHDQo8qAMjh5GwtVXy7BZZUGtE/5D8/30O12UK/VcHrW49uAcjgFIfsotFlBYJXBk+EZTHCeBG3yWxEs4Zc8givgIx4lCfOp+dSnPoX79+4jjEK8+MEP4h++733F9riETQHYFJqPm6qXC/uovGaSvXoi5UoFzu7uDv6nf/kv8enf+z0E8wCUJsqpCC+EIOHbrnFvAiAFoRSNRgMbGxtot9vsukPC8hD983/+gzg6OsKnP/1p/O0rf4vpbCrAKKu62Kgu3l+V0lVhKgLg2t4e0pRiOptAhrJUVGW1CcviX/HrByvt30wYcVdzSkWyuSIcYbSWQmfRqnxJ2pRhHCcxBsMhZrMZptMJM8heEkZWVqdNQY6axlupWRjXHG2EFmjmm5VQAgCMxyMtEqWO5ApwFtYpvtzgIV5e+dor6PV6eO2112BbFlKeE4v5Y1FuT0xhwUKcxFnKaE2TZk04tiN3GYxdxBWTJbivUK40t3ir1cZ3f/d34w8+8xnmtcv0Nmg9oRTDwRCTyQRdbi3vTXo8UHcTjuMiDAN24mARPPfcc/h//uRP8NWvfhVnynG1yjRil5wfyGz4MkYvTE7tPQBC0Gq18dRTLPGbyBB6fHyCac52YRGCGzeYy34cx3jw4EGp8XgZL3Y7HVSrVfQvLnB2dmY8LSIWwebGJsajMctusVR9uBxtTDCSOEGf200W8+RiOFmbRXxNvcjfZM+8vxV7jEUU21t+I6xDlau9Qb0gFLAsnl+bQJ6can0iFmwChGGEhI9xAe9VaEzL6pvHcjqd4PQEqFQq2Nvbw+HBIX7t134NX/vaqwCARqOBi4sLbG5swPU8pDRFzE/YAHaVIuWpfuTlUEvYT/NYPr7EudKIf+DH26cnJxiPx2ivtfmeExo96/U6PM8DTVOMZ1OMRiPEUYQgCFCr1zGfz6UH7sf/j4/jt3/ntzEYDFbhaTNu+TqKZywjfKpfNAXzMPUqPpqNJo6Pj4urGgEIj6AmfEYIMZzALF3R2N7Z833u8ObxS576EdTu7i4a/ISk3W7j7t17Ok6rKg85fBbRRhSbHwHHSQJ5u7B0cglcinDKcNHmIJcI3W4XmxubSEEBmuL09Az9i77c0lgWwc7ODqqVKj+zIAWRs6hPaqk3Gtjb25Pt9/t9nJ6eSDsTpcD29ibaa2ssx73AdUGfFj5ago/60Ww2x3Q2w8bmJtbX1+FXK3jf+/4hBsMhHnB/rNF4KLe6wou8UqnAcRyePeUgS2VM2ekWCON7KPtOoQE+TrnSiH8AMwALnxZhlMpWKrb1EBrBPJij2WphNptjMBwgSVM8ePAAp6en+MEf/EHcuXMHn//85zEej3gEwES/M6PqjIaBpmW/1KsABOgP+qj36tja2pKwgjDA8ckJXNfFfD7nKTh0mGmaMJ8f29Jd+pfioj5lJxe9Xk+e5MjkgQqc3nkPw8EQAEVK2bWRR434p+OTf1EyCwhZck9zOZzVIv6xCuMxP43kdYMgUAwOjLcuLi7QbrVRdapCNChwVoj4xypiPpvj8PCQP6Y8B5Sy8hPmFzSZTDBVcomX9r3wdBUal9OGRVhkiQhdx8Hb3/4P8H3f97342Mc+htPTU2xsPAPP9xCGISzLYm4CIimB62Bra0s6NFJKMY/nGI3H3Ese+CaM+CcQZg5xLEdOgqOjI+zu7sIhLoT7rTAlCMOx53vodDuwHAuu46CxuYmUpnjjjTdA0xTtdht7e3tI0xT379/HeDzOJpg6QAuY2OhvoHwXRRGCIFTqs/8F8znXIoj2iVjBKagerEsDYMIrr2QT+VcYhjIcgunb+WyOOea5hvgmRdEodC/nZfgY0Mu9IITg+o0b6Kyt4cGDB+j1ekZaF7SbMpvRMtrwJTaMIoRRMWys/JQymqRJUoKPImBEY0Im5fgmTmLu9pCDodQLwgDzIAAoNfgSqSYDEy6GqpekzdHRESqVKj7ykQ/jO7/zvWi1Wtjc3MTJyQnOLy6w0V2H67Lp7jiuBGBbNvdIZxekxX20erWaaeQiEkG+L49Qrvi2OJ+YlCXm6na7fHAy5pM1LYuHEKCoVquglML1PNRqdWysb6DX6yGKIlCaotfrMQabz/RxyOUkMa/AuWWjVA8u/tJ9cxQ4FCUTKr8fLrdYqHKyOMTL4OS4VsGnWC+jzaL3KjggY1rbdtCo11Gv11Gr1dDv9w1hFS5Lm0Jz5XCWFSI6ly85htNe6f0u5xsdDgHw1re+Fdvb22ZU8nBIsS0zTjl8clV838PGxga+//v/KT7ykY+w6JhhiEajgWazAZcHvUtTCkKyW1MZHCbIRcgYQtidQHEAIOo9CT3nSq82sLAT7Cjcsizpcp2vSgHuWm0hSVJ2MpOm3JP0BFEYYXd3F+1WG3fv3UG/P+CevQmyNC3qclXERdGYFwylXhiPU1XxUN8YerGIJkUmI+BBn1aYR4vgSE2AClzki4W45XNGLaJNEscQ/hkPHjzA/v4+v4+Vv66yKo1zzwq45O9XXbIYhY4u5DIMdGzN+Jj7VK/XFU/jkiYFHPpkaBOFofRiTpIE4XwOy2IpXxzHZdEEYnaJOKUsU0yBHFwz83xfXvQ0N/p45Uoj/lFAXk6cz9mlMstizkhpKgyzLPSnOHVhWgzFRX+A09MT1Go1tFpt1Bt1tNfaeJo8gzAMce/ePfT7/ULT+l7dhFpOT9UGM9uG5E2OxZWqVN/N4KiaS151h1jszLoK+1tMuxycfNHglEuvpbTRNBGdNoInr12/hp3tbZ694Tbm87kOjyB3opafsTkiCC0gL0fztCnwv3myaouE8e1yXEyKlH6yV5AcJgSNbHFZ2oAWx5xSII4ifPITn8BnPvMZfPSjH8V73/tezGYzzOdzHBwcYH19HY16Ayn4BVLDQkwIYTfL0xQpCHOYLPbiscqVJsLL/mQqQqL4rkwmY26YY89s2+ZxdpndJ4lj2LaNOI5xfHyE97z7PVhfX8drr72GW7duZfYNAuRV8+IPwzOTIpBNa/6PibFW6bdhxdQfr7SA0DI4qxatT8qjxYv/QtrIMAyOzQM2LWs/X7KxMqBXXvK45eFInAmb2PnqOVxojm/kz8vyjfybPYiiSEYyWFgW0HgZbTzfw/UbN7C+sQHLtvGJT3wCP/IjP4L//P/+Z7zxxhsYj8dI0gTT2RSDfp95JRv6wpxtHaSUIo7ZqbC+cD2++PkGxDRmMYqFR3GaxEgoged66Ha7SOIYCYTGk0hrekpTdsK11sZoMEQURRgOh+gPBiySvaGtPA6FBSa3SC2DIbbbeYYkFMpWXCxD+a/Zc9PCJXBR25Bt0vwt3SVwRF/z78r6JOrnsV2RNg8fPMDR0SEoZYbtfNHhPBptJJxL9omB4zk8+H5x1fFeNJQSlwU4AGyuPnz4UN57W0xjpXMFTWkxbcIwxP7BPo6Oj+C5HnOMTVPpne84NqIwxtnpGTa3tpCkMdLU5o6kGbLMfMG+9X2fZYmw1HhFj1+u/La457nodru4uLgApRSzKYvjKyaWjBgPlgWhVqvJG9D9wQDBfI5ms4nPfvaziOOYqWglFCmOjc4l5bySq0eKPKBes1ss9wWX6Js3tgpnXsGyCyYBov2bh8MkHs3zKoXypRlDg66DctqY4QRRiCAKFfwsDcNHpU1my1KlrwkXHa+iLONwjMqXGU5R8SSGPom9XxEHEJZ6h4IJAyqjFpjglJUFtMmPFaUI5wFACHae2cH2zjb2H+7j4PAQ89mM38In2N7ehuu6uP/gIfZ2d3lcKgY0jtlJXKVSgWURPPXUW/FjP/ZjqFRqyHjj8cvVbKmU8tTNp/GT//NPwvd9RFGMOGH+A8zgFSNJWPS2NElAU8o9I5khkgAgloUW9+NJ0xSVCgvo5ft+FsVMuGUrk9m0vRFAl5GTCAByNVBUHQGbXmJYKGeaHCrqqVfe9YHm/s3gGCqv0KdSxErhKBJNoTHrN9P5aH5Cqf5Ml0CBaSQ6Ppd2BdHm5OKpvRAXQkq+XmzCllqwDq607sr4GJY55r+UtaiG0hWnwSKkSxiGqFQqGAwGODk5xcnpCU5OTtDr9ZgHf5IgSdjlahaulZR36BHKlUb8AwVcz8VaZ00GWpI5cigAkaaDM+54Msbp2Sl832f1AX7U18TGxiYqFV+6mNM0xf7BQ0wm06wxMKYPuAal6NmZFKKmo2m5hvFfZl0+r5UU62XNofBGaZct6RouJkPlanCgbAPEfk+Hkk+LZ4Kq04ZdpPVcN8MVXHng3uPCv0qDSKmMWPfItCmgZxoLQ5/EmBB9LLWWDcfzpumsvVQkf+bLU6SxuRhoLPu6Om3y+HiOx7yECWUxflKK7Z1t3Ll9G0fcC75WrwGgmM9nIAC/2pBqUG2LADwjbqociWtK4GOWK4/4B0BeFahUKvLEioqZojB0kqZotVqoVqtM3atWmTel66LZbHAHwixz41NPPS3jjQghH0URbt26hdlspk1I9rdhkKWmTOQpjRQsan8IDC+ytjPNg5pzSxeelax/iv1mNTg5mLQcH+3T3O7CdV14nis72Ol0sL21pQJjLVCKe/fuoV6vawHWKVhIhP39fUZ7sfVLU8zmc37ZdVXa5PoEfZxK4RQ/039QFQ5/tIg2ZVJwAZzF/SpZVTh98zAch6UqEhH7RN6xjc0trG+wYHb/7H/8Z3jhhRcQxzE++tGP4vDznwcA1Ko1pClF7/yCRUDknsVRFMF1XVAAScoCyIk4PlRdjIlqRHj0csWexgx9YZB64/U3ZEaFrC7V/p5Op0jSRAZBPz8/h23buHnzJgaDPgaD/6+9qwuO4zjO3+zP7c/hcIcD7gCCFEGCIsiS4yIpFmnSUUV6UJUoVigpVkzZDOMHp/SgKqZiuSouPccveohfVM5bYj/oTRVHqYpMpYqViErJUtlMLFFMpMSi+CMSAAkSfyQPd7e3u5OHnpmd3dsDIJBB4grmAbjb3evt7unp6Z7p6V5UQk4zrNZLwnpyCgWycqCnwMwqh+zrMzMJhDWmbrFUB+hwuk7WdoPSMUjTvNzAyYOjWzM6IRqcXvikLkuaDAOmZaA2OIjRzZuFWyUKo5mmtoZAQOI4FjtVpioTrPCxY2zbNpYir91u4+LFi5rVuQJvelgYy0WS51kzaZdMU+JZXmd0Za2NAAAQrElEQVR5w/XLGnV5crNSn/OV4XQZb2CwRRL4SqWC0dFR4REwBdgQQbKMGSj3l1Gv1xEEAQqiEmwcReLsYZuUi/AWopjOVVUqFRgGQ7PZRrvYpyb2NKYPpq3rorFEfmzrNrz66qv4yx/9CP/y7rtYajZR6uvDjh07ROQxPRmGoapGGYYUj1MqlfAn3/0unnn2Wbz++ut477330gpL286Qli4zDHLLeIxOQJUXSDFwOifCUlIFORsnQZn6+kRS2oSDg3FhCcXJrCPPgkU8FrNfYjqIM7rpNPlqrYkpPq3UYiA/voTrAXK8S5BJVuVslay5MNC5GkeUpjFMk6oqGCz1ey55nL2GrGASr0zTSl4MqB0QAMrdkg9wDaDubGRAJhaA4KHG3jSc5BJRm5KTLML6b1IFeLuf0Xmsw4m1x1jXr3LfpRRVj5Ft2xZqtSFs2jQq0smaqUeTz1zNOUQrw/bt2zEwMABmmogiqmphmRZC3iHZZQYdG2J01s+ybTiuA8cpYMtDW9QOVU6hrDW3dT3aIEXbtEzsfHgnXv7en6Gvr4jPfvMZJiYm8Oc/+AFcLUpTLvy+/fY/4p13/gmdTogjR47gG9/4A5imLNkhbd3u6UUPzmIGg8kNsEIBURSJ1XhDM08JNwmK/lE53aVGg3YatHtSSXi+B6fg0BJMHAGg3YCFhQU0W00SELVIlddpOlCgE3bQaNzrmv3ls47jwnM9gEEryifvciGQYjM4lVYyeX8UReLMGYPn+yrNhuM4lPRbwJMzvFyP7MokAv3BFQRSwgENBsMgxSwDO0nxJMNIp0ryR72eAQXbgeM4ySTAOVqtFjqdJAKaJhVCnOtZ7Hg6qShAE4+cGLreDcC2aDDKn3EAQbudlPLRf9nFCo1xOg+V4tIWoDklxGeMErEXnAIMw4Rt2zAMlraGVKPdTrXQLgL4XnnlFUxOTeHj8+cxOzuL8fFxLC4uKvnfMT6Oy1euwGAMY2NjuPj555icnMT+/fvx/Ze/r/J0P8i2vtviUoI5Jf/etWs3fvgXP0TYCWHZFvr6+rTgscRS+eY3/xDPPHMM4ByO68J1XXFiV1c3cvZhWodqQs4ZYsZgGIBf9DG+fRyelxyt4JnnZbt9+7ZKum3bVFco5jGKxSIqlQoFXFWr4Bxot5sIoxgmM1Aq9YFzyqtrimTdSsRzdI+8dO/ePVz6/BIcp4Cg01ExRpZlYaBSRa1Ww8imEXAAnXZb5auVloLnueKckwYY6Ze2221cuXwFMBhqtSFMXp8UpWnSSCmc9XHEteHBY8iqliTwnOLme9jgaR1KbprjODBMg2pViSBPBpbij8Kccyw1m1haWoLv+9i8eTMKBQcAR3OpieuTk3BdDttxRA4bcvXUG8XOC9VjR3rwZ3EVtyhTwQKq1Sq2bt1KF2Oid3p6CtM3bsD3fZELGMJ648pX6u/vJ9cmR1l3G6ckzXHMEYpk69BUo1pbVBCQBCxKY1e8lzGGSrmCgwcOAJyjWCzixRdfxJtvvombN2+iVqvh5MmTeOONN2CaFo6/cBx//3dv4r9+85/YuXMC5XJZyZ6caB6EnbO+CieDsW1ZsPtLmiCmyZEMdz0PrushsZHIYtmyZQu++jtfVbNyFMe4euUKGo2GWsTjQjhon4QE2WAk4LZtiQ4Ss4wcR9rAqFQq8DwPvpfUH+p0AtTrdQwNUeVH25aF+SwAItMayPqybCtxK8BVAJqyGDSaOIC+Uh927ppA1AnR7rQpxDwKUSqVUK/XVf1tgHxzSyArlYVpWqndom6aKJp01+7diCJasDeY0aVsUr3AYyVwKtiagXhQq2FoaAie6+Jeo5HK06PGtNqy5ekuFn6O67rYtm0bCrYNy7bRc3GSc1yfmsL09BTimBY8S6V+cB5jYWEBlmVibNsYKuWK4DZVTJA7nAXbws6JnUkOplW0yclJzM7ehu/5pBxlhYw4gucX4bkeNm3ahLGxMQBUpTMKIzXox8fHV1WJgsjjyvq8evVqYvUJt5EqmKTlk0J8hAOodRAHRSCfOnVKTSau42Lfvn0qp3jBLmD37t0AAKfgYOLhhxGKNTnXddW7fjsz/gGJOQJNb6dmPWnVJMwFl8+wRIJBRx+OPn0UR556Sr2gHbTxs7/9Ga5PXlcJv8IoQmWgjI8+Ok9F0JTJI/7IAYTumkuASNHIGGKe1MiKohiU5MkQKT0JzaVGA+12m4rdBwFiTifdTRNKACWdyQ5LTos5HNdBf7lfJRqj9Bhp66HZbGKpsYRkMTypMilhk/uQ5rGsnSQ/d1lbnINz6a7FGBoaxMjIppRSYmD4+mO/i0Nf+xoActPOnDmDCxcuQHFU4H758mV1xorHaj9Sc90YLIMUs6WUc9LZWrej3N8Pp1CA6zpwXA+u6wAc2DQygsHBQVH+hZR9rEVpcwAGqD6VacjyMNn+ZtpfUliWbaFSqaA+XINlWWQVg6HdbqFeG0JfqQ+u46iIeIMxaFFjZGWpcjRpmiQGSSIvslJNXUEJ2eKcYtKyKNfrNQwPj5B8GQyDg4NCS5AF6bpuQhejdTo93MGzTTUGXOFCqQwEXEMCSHsPa2zraOHoYoP059StNEd5zieABq9dsMFA7gNnpNFPnDhBWeCQ+Onz84v48V/9GG+fPp0cLlQwWRp+Bk1mMBQsC61WiywngyEMaCvR9TxldnbCEHPz85i5OYO+Uh/uNRrgcQS/6CO+y1Hu7xeKQN+WztnO5QydsIN7jXtwCgUw06Rsh0EAV1hTAEWG3rh5Azemb6R40mq10N/fj4HKgKpCuRyPuwMMOUaGh7H/wAHUhmpg4NizZy8Of/1w10xtWpbYRgViDhw9ehRHjhzR+EoVC976h7dw6/YtAAx3797B1NQ0gnag5hDVE+ntytR6iWyFQgHNZhNBuwPPLyYK02Bot2kXxrIt8DjG4h0q3SNToEQxx/zCAirlslIQ6e1sqYbEeg4Hin4Rw8PDYIYh1pponS7mHMww4RQcVUL6zp07CCM6jqOrrownSdd4duzm+6EcHNVqFQcOHujiPwPw6P79OHjwIADazLBEXbS1jKmVcHkQbf3OUkmLQptb5KUuvc+EBs7SrXzYboZI/9VxkzgF2UYcF3966hQMxvDzt34OZCDwVIKhBBcGWiy0LAuN20u0JW9Q2RFyp1wAJMRRFNHsAloj6e+ncqrtVhtfXPsCjzzyCM0uGl0JjdpuESOrbHFxAaZpqVSrVBmTo9hH5XuDIEDBpmMiBjPAGS0iLy0todFooOj7QiGneax4kzmjxWOO6mAVhw4dwt49e3Ds2DFYYiBZlkWVJI2koqPOYzl45DasIATggOO4eOGFFxR9i4sL8H0f169fx/vvv4+lJcqQZxgMekVVvb91QfA8H61Wi1JhRBGCDpU8jqMYnU5ACoEDnU6I+bk5FItFeL4PgzEEYQdzs7NwHQe+uKZLEBOyoM/uRd8Hq9eRqAcmrA4Ojhie56JQcDA3P4ebN2dQ7u9HqVQS55TI7YsiCuughOZAooh4Sv66pJpz1Gp1HD9+HM8991xXYCUAGKaJglQy0IYZ0nLMmW6xdPM4Wb7OdCFPpu7fHpcK0CjpVjpcOKlM40i34ak33ehVELTLaeYxZmB4eBgvvfQSoijC2bNnyaxMEBBWaOLSybrbcuCUSiVMTEzgoYcewpUrVzBzc0Z4fBxLjXswDBO+72PLli00cDjQatP6gef5pBSkjw3NpZTKRriP5XIFjz66X+zkmLBtSt/RESECMzMzmJqeAsBQrQ5ieGQEtkWBW4EonxyGHdiFggrcSkQxETqCb4CBY2BgAHv37cWO8R34o5Mn4XseTFXDKMN+9T0roJkH1XuM1O6O4wzj5e+9jLn5Obz22ms4ffp0Rjby+jlJMyYL7wVBgCAI1C4XAAwN1ZTSC8OQtoTFjo1ULvV6Xe3ucaYPJK4bVYoEDqRS4EoXVVYO4Rat/d1dvAvf8+D7RXFg0kIYRgq/ol/MOUiUHgs66zjnGBwawre/9S08//zzcFXuqGxnpBmeHVOJvN3PmOKK/vttjOfvvz7Qls4dos0kSiOoB3XU0gTLvxrhLGsJdcFJa/04jjEzM4Of/vQn8D0fBRFzshr8ozDCgQMHsG/vPpz713P48MNfwxIDPY4iXLhwATM3KV+PZVng4KJcKy3MPv744yKXs+7G6bTRdDK6eRRHnjoi/H4Nf6E8zn98HufOncOnn3yCL65dg+u6aqem1WojDDsIggCHDx9GtVpFqnFA363inKPZaqKv2IcTJ74N1/VUcN+yPM7xERI28u5+AtJWKyOLanJqEn/z1z/B/PwcZmdnxY7S6oS6Xq9jdHRUKRvOY1y7dh1z8/MAOJrNFtUuYwx+0YdlmOiEoThMSWtrq1nMLZfL2LZtOxijnVWZ6TDshAg7HUxNT+PWzC202k0EAb3PdV1yZznQbDURRzFcz4VpmMu+i8ccYdRBoeCgOljFrold+M4ff4cUNtiKPL7fMSXvpcartI45ANZzOX/VbX0UTu4rhORqFCh+5bjySPnaOog8OJrVoMGmGYoyB+rMy8ZC9BpbBjMoIbrIQiifjcIIZ989i0uXL8MRcRPImNPPPvsMqgPVjDzIeVtDlRkwTRH8qPl5kjecx4ijGO/94hf49NNPYdu22gUjl4LqVh079vu09rAMTYmNResxuU0PhV2hrxSPu52DBI5GE49p4M7Nz+HMmTO0myJgcrFAqaDxBAZjwCNf+Qr27dmjNF0URvjluV/i0ueXwAG0my386tyvsLiwgD7h4gRBgDAMcfjQYZRFdK2K45E4S4UoXKetW7fgscd+T9QXS/ONxxwffXwen/zHv+Pffv0hvrh6FZZlwXU9cSyE1rCiKKIJQLjcSuJSC2j0/iiKMDIygieeeIIWoy0rh8fd9kkKs5X6SaeTZ36dM6boef3L2tv6K5yuGRIZbZwM/p6IrWgVZlVJj1dnD8Dkwlkde6Iwyh9oopmmSSVU8zGBOsG6St5EERU2Sz+YGNSydEs+TUCaN9nECVgzb3INoF40CThSiermfJpwqZ6TWdlgBgzLSB4BtImAIegEeOedf8atmVtwRUJwWWDx6aefRqlUykEpjSwtHjMxAeTTFIt++OCDD/DZxc9gWwXYtqWCSjthgDCM8OSTT4qqH2mJZBqNyTqeXM9apfytckyt9LyyZHLhZC3ZtbX1d6l6CXKm5bI6JYsCzjJ9kuV57qHe3NN6y+OyasWVefhL0YS8h1cBZyV8tMf1V+QrigfBm2VeslreAF9abrgWxpDV5YZppIroZcGncFml3MQieVWWJoivhmloE05vOHm0P2je9DJzKd5mBVzuU+Osu4WTpqWXNHZ/zgoEdDjqZvdMqLcVB0fqTg6EPNnoEsgc3BVWaXjL0rQa3kh8MvKWxk+/2Ss1xZdRqv/DvFkDTfm9mC83PWliUJsWPA1Cw5Qnl3MHfA/5y4OzIm8knBzeYLm+Wg2PCd/VjSn6zLTP99PW9/BmhlOpmUf0YjLRa361xo4sufr3xFtgKQ7KjtOe7AlHnwFkjAcHIHe+sl2zMhyW3FgLTanfYu28ycXn/z5vesFJD2aWgEsFOq7MG65/gS43+UdpV8ObBw5nOd5kxxS6eaPf+NK86Ynx2tq6WDgbbaNttI0G/C+kGN1oG22j/f9tGwpno220jbZubUPhbLSNttHWrf03dT+AL7gj2OkAAAAASUVORK5CYII=;" parent="1" vertex="1">
                    <mxGeometry x="7" y="172" width="284" height="246" as="geometry"/>
                </mxCell>
                <mxCell id="2" value="" style="rounded=0;whiteSpace=wrap;html=1;fillColor=none;strokeColor=#FF0000;strokeWidth=3;" parent="1" vertex="1">
                    <mxGeometry x="67" y="171" width="170" height="37" as="geometry"/>
                </mxCell>
                <mxCell id="5" value="&lt;font style=&quot;font-size: 18px&quot; color=&quot;#000000&quot;&gt;&lt;b&gt;Deep learning&lt;/b&gt;&lt;/font&gt;" style="rounded=0;whiteSpace=wrap;html=1;fillColor=none;strokeColor=#000000;strokeWidth=3;" parent="1" vertex="1">
                    <mxGeometry x="360" y="160" width="140" height="60" as="geometry"/>
                </mxCell>
                <mxCell id="6" value="&lt;font color=&quot;#999999&quot; style=&quot;font-size: 18px&quot;&gt;&lt;b style=&quot;&quot;&gt;Rule-based Controller&lt;/b&gt;&lt;/font&gt;" style="rounded=0;whiteSpace=wrap;html=1;fillColor=none;strokeColor=#999999;strokeWidth=3;" parent="1" vertex="1">
                    <mxGeometry x="360" y="398" width="140" height="60" as="geometry"/>
                </mxCell>
                <mxCell id="7" value="" style="shape=cylinder3;whiteSpace=wrap;html=1;boundedLbl=1;backgroundOutline=1;size=15;strokeColor=#999999;strokeWidth=3;fillColor=none;" parent="1" vertex="1">
                    <mxGeometry x="390" y="260" width="60" height="60" as="geometry"/>
                </mxCell>
                <mxCell id="8" value="&lt;font color=&quot;#000000&quot; size=&quot;1&quot;&gt;&lt;b style=&quot;font-size: 18px&quot;&gt;Motor Drive System&lt;/b&gt;&lt;/font&gt;" style="rounded=0;whiteSpace=wrap;html=1;fillColor=none;strokeColor=#000000;strokeWidth=3;" parent="1" vertex="1">
                    <mxGeometry x="60.5" y="470" width="185" height="60" as="geometry"/>
                </mxCell>
                <mxCell id="9" value="" style="endArrow=classic;html=1;fontSize=18;fontColor=#000000;strokeColor=#FF0000;strokeWidth=3;exitX=1;exitY=0.5;exitDx=0;exitDy=0;entryX=0;entryY=0.5;entryDx=0;entryDy=0;" parent="1" source="2" target="5" edge="1">
                    <mxGeometry width="50" height="50" relative="1" as="geometry">
                        <mxPoint x="400" y="360" as="sourcePoint"/>
                        <mxPoint x="450" y="310" as="targetPoint"/>
                    </mxGeometry>
                </mxCell>
                <mxCell id="10" value="" style="endArrow=classic;html=1;fontSize=18;fontColor=#000000;strokeColor=#999999;strokeWidth=3;entryX=0;entryY=0.5;entryDx=0;entryDy=0;entryPerimeter=0;" parent="1" target="7" edge="1">
                    <mxGeometry width="50" height="50" relative="1" as="geometry">
                        <mxPoint x="310" y="190" as="sourcePoint"/>
                        <mxPoint x="310" y="300" as="targetPoint"/>
                        <Array as="points">
                            <mxPoint x="310" y="290"/>
                        </Array>
                    </mxGeometry>
                </mxCell>
                <mxCell id="11" value="" style="endArrow=classic;html=1;fontSize=18;fontColor=#000000;strokeColor=#999999;strokeWidth=3;exitX=0.5;exitY=0;exitDx=0;exitDy=0;exitPerimeter=0;" parent="1" source="7" edge="1">
                    <mxGeometry width="50" height="50" relative="1" as="geometry">
                        <mxPoint x="400" y="360" as="sourcePoint"/>
                        <mxPoint x="420" y="220" as="targetPoint"/>
                    </mxGeometry>
                </mxCell>
                <mxCell id="16" value="" style="endArrow=none;html=1;fontSize=18;fontColor=#000000;strokeColor=#000000;strokeWidth=3;entryX=1;entryY=0.5;entryDx=0;entryDy=0;" parent="1" target="5" edge="1">
                    <mxGeometry width="50" height="50" relative="1" as="geometry">
                        <mxPoint x="640" y="420" as="sourcePoint"/>
                        <mxPoint x="640" y="190" as="targetPoint"/>
                        <Array as="points">
                            <mxPoint x="640" y="190"/>
                        </Array>
                    </mxGeometry>
                </mxCell>
                <mxCell id="17" value="" style="ellipse;whiteSpace=wrap;html=1;aspect=fixed;fontSize=18;fontColor=#000000;strokeColor=#000000;strokeWidth=3;fillColor=none;" parent="1" vertex="1">
                    <mxGeometry x="635" y="421" width="10" height="10" as="geometry"/>
                </mxCell>
                <mxCell id="19" value="" style="ellipse;whiteSpace=wrap;html=1;aspect=fixed;fontSize=18;fontColor=#000000;strokeColor=#999999;strokeWidth=3;fillColor=none;" parent="1" vertex="1">
                    <mxGeometry x="610" y="440" width="10" height="10" as="geometry"/>
                </mxCell>
                <mxCell id="20" value="" style="ellipse;whiteSpace=wrap;html=1;aspect=fixed;fontSize=18;fontColor=#000000;strokeColor=#000000;strokeWidth=3;fillColor=none;" parent="1" vertex="1">
                    <mxGeometry x="635" y="458" width="10" height="10" as="geometry"/>
                </mxCell>
                <mxCell id="21" value="" style="endArrow=none;html=1;fontSize=18;fontColor=#000000;strokeColor=#000000;strokeWidth=3;exitX=1;exitY=1;exitDx=0;exitDy=0;entryX=0.5;entryY=0;entryDx=0;entryDy=0;" parent="1" source="34" target="20" edge="1">
                    <mxGeometry width="50" height="50" relative="1" as="geometry">
                        <mxPoint x="370" y="350" as="sourcePoint"/>
                        <mxPoint x="420" y="300" as="targetPoint"/>
                    </mxGeometry>
                </mxCell>
                <mxCell id="22" value="" style="endArrow=classic;html=1;fontSize=18;fontColor=#000000;strokeColor=#000000;strokeWidth=3;exitX=0;exitY=1;exitDx=0;exitDy=0;entryX=1;entryY=0.5;entryDx=0;entryDy=0;" parent="1" target="8" edge="1">
                    <mxGeometry width="50" height="50" relative="1" as="geometry">
                        <mxPoint x="640.4644660940673" y="469.53553390593265" as="sourcePoint"/>
                        <mxPoint x="500" y="514" as="targetPoint"/>
                        <Array as="points">
                            <mxPoint x="640" y="501"/>
                        </Array>
                    </mxGeometry>
                </mxCell>
                <mxCell id="23" value="" style="endArrow=classic;html=1;fontSize=18;fontColor=#000000;strokeColor=#999999;strokeWidth=3;entryX=1;entryY=0.5;entryDx=0;entryDy=0;entryPerimeter=0;exitX=1.014;exitY=0.133;exitDx=0;exitDy=0;exitPerimeter=0;" parent="1" source="6" target="7" edge="1">
                    <mxGeometry width="50" height="50" relative="1" as="geometry">
                        <mxPoint x="520" y="400" as="sourcePoint"/>
                        <mxPoint x="420" y="300" as="targetPoint"/>
                        <Array as="points">
                            <mxPoint x="540" y="406"/>
                            <mxPoint x="540" y="290"/>
                        </Array>
                    </mxGeometry>
                </mxCell>
                <mxCell id="24" value="" style="endArrow=none;html=1;fontSize=18;fontColor=#000000;strokeColor=#999999;strokeWidth=3;entryX=0;entryY=0.5;entryDx=0;entryDy=0;" parent="1" target="19" edge="1">
                    <mxGeometry width="50" height="50" relative="1" as="geometry">
                        <mxPoint x="500" y="445" as="sourcePoint"/>
                        <mxPoint x="420" y="300" as="targetPoint"/>
                    </mxGeometry>
                </mxCell>
                <mxCell id="25" value="&lt;b&gt;&lt;font color=&quot;#999999&quot;&gt;Images&lt;/font&gt;&lt;/b&gt;" style="text;html=1;strokeColor=none;fillColor=none;align=center;verticalAlign=middle;whiteSpace=wrap;rounded=0;fontSize=18;fontColor=#000000;" parent="1" vertex="1">
                    <mxGeometry x="240" y="240" width="60" height="30" as="geometry"/>
                </mxCell>
                <mxCell id="26" value="&lt;b&gt;&lt;font color=&quot;#999999&quot;&gt;Training&lt;/font&gt;&lt;/b&gt;" style="text;html=1;strokeColor=none;fillColor=none;align=center;verticalAlign=middle;whiteSpace=wrap;rounded=0;fontSize=18;fontColor=#000000;" parent="1" vertex="1">
                    <mxGeometry x="440" y="220" width="60" height="30" as="geometry"/>
                </mxCell>
                <mxCell id="27" value="&lt;b&gt;&lt;font color=&quot;#999999&quot;&gt;Dataset&lt;/font&gt;&lt;/b&gt;" style="text;html=1;strokeColor=none;fillColor=none;align=center;verticalAlign=middle;whiteSpace=wrap;rounded=0;fontSize=18;fontColor=#000000;" parent="1" vertex="1">
                    <mxGeometry x="390" y="320" width="60" height="30" as="geometry"/>
                </mxCell>
                <mxCell id="28" value="&lt;b&gt;Action&lt;/b&gt;" style="text;html=1;strokeColor=none;fillColor=none;align=center;verticalAlign=middle;whiteSpace=wrap;rounded=0;fontSize=18;fontColor=#000000;" parent="1" vertex="1">
                    <mxGeometry x="540" y="160" width="60" height="30" as="geometry"/>
                </mxCell>
                <mxCell id="29" value="&lt;b&gt;Test &lt;br&gt;Mode&lt;/b&gt;" style="text;html=1;strokeColor=none;fillColor=none;align=center;verticalAlign=middle;whiteSpace=wrap;rounded=0;fontSize=18;fontColor=#000000;" parent="1" vertex="1">
                    <mxGeometry x="633" y="391" width="95" height="30" as="geometry"/>
                </mxCell>
                <mxCell id="30" value="&lt;b&gt;Mode &lt;br&gt;Select&lt;/b&gt;" style="text;html=1;strokeColor=none;fillColor=none;align=center;verticalAlign=middle;whiteSpace=wrap;rounded=0;fontSize=18;fontColor=#000000;" parent="1" vertex="1">
                    <mxGeometry x="623" y="470" width="115" height="30" as="geometry"/>
                </mxCell>
                <mxCell id="31" value="&lt;b&gt;&lt;font color=&quot;#999999&quot;&gt;Action for tracking the path&lt;/font&gt;&lt;/b&gt;" style="text;html=1;strokeColor=none;fillColor=none;align=center;verticalAlign=middle;whiteSpace=wrap;rounded=0;fontSize=18;fontColor=#000000;" parent="1" vertex="1">
                    <mxGeometry x="478" y="253" width="150" height="30" as="geometry"/>
                </mxCell>
                <mxCell id="34" value="&lt;b&gt;&lt;font color=&quot;#999999&quot;&gt;Action for training&lt;/font&gt;&lt;/b&gt;" style="text;html=1;strokeColor=none;fillColor=none;align=center;verticalAlign=middle;whiteSpace=wrap;rounded=0;fontSize=18;fontColor=#FF0000;" parent="1" vertex="1">
                    <mxGeometry x="535" y="402" width="100" height="30" as="geometry"/>
                </mxCell>
                <mxCell id="35" value="&lt;b style=&quot;&quot;&gt;&lt;font color=&quot;#999999&quot;&gt;Learning Mode&lt;/font&gt;&lt;/b&gt;" style="text;html=1;strokeColor=none;fillColor=none;align=center;verticalAlign=middle;whiteSpace=wrap;rounded=0;fontSize=18;fontColor=#0066CC;" parent="1" vertex="1">
                    <mxGeometry x="503" y="450" width="130" height="30" as="geometry"/>
                </mxCell>
                <mxCell id="37" value="&lt;b&gt;Action&lt;/b&gt;" style="text;html=1;strokeColor=none;fillColor=none;align=center;verticalAlign=middle;whiteSpace=wrap;rounded=0;fontSize=18;fontColor=#000000;" parent="1" vertex="1">
                    <mxGeometry x="542" y="500" width="60" height="30" as="geometry"/>
                </mxCell>
                <mxCell id="39" value="&lt;font style=&quot;font-size: 23px&quot; color=&quot;#ff0000&quot;&gt;&lt;b&gt;Cameras&lt;/b&gt;&lt;/font&gt;" style="text;html=1;strokeColor=none;fillColor=none;align=center;verticalAlign=middle;whiteSpace=wrap;rounded=0;fontColor=#000000;" parent="1" vertex="1">
                    <mxGeometry x="123" y="140" width="60" height="30" as="geometry"/>
                </mxCell>
            </root>
        </mxGraphModel>
    </diagram>
</mxfile>